<?xml version="1.0" encoding="utf-8"?>
<!-- Generator: Adobe Illustrator 26.2.1, SVG Export Plug-In . SVG Version: 6.00 Build 0)  -->
<svg version="1.1" id="Layer_1" xmlns="http://www.w3.org/2000/svg" xmlns:xlink="http://www.w3.org/1999/xlink" x="0px" y="0px"
	 viewBox="0 0 5.59 4" style="enable-background:new 0 0 5.59 4;" xml:space="preserve">
<style type="text/css">
	.st0{fill:none;}
</style>
<g>
	<path d="M1.82,1.16c0.13,0,0.23-0.05,0.32-0.13c0.09-0.09,0.13-0.2,0.13-0.32c0.3,0,0.6,0,0.91,0c0.03,0.28,0.18,0.43,0.46,0.46
		c0,0,0,0.01,0,0.02c0,0.22,0,0.44,0,0.66c0,0.22-0.05,0.43-0.16,0.62c-0.1,0.16-0.23,0.29-0.39,0.4C2.98,2.93,2.86,2.99,2.74,3.03
		c-0.01,0-0.01,0-0.02,0C2.52,2.96,2.33,2.85,2.17,2.7C2,2.54,1.89,2.33,1.84,2.1C1.82,1.98,1.82,1.86,1.82,1.75
		c0-0.19,0-0.37,0-0.56C1.82,1.18,1.82,1.17,1.82,1.16z M1.88,1.22c0,0.01,0,0.01,0,0.02c0,0.19,0,0.38,0,0.57
		c0,0.09,0.01,0.17,0.02,0.26c0.04,0.21,0.12,0.39,0.27,0.54c0.15,0.17,0.34,0.28,0.55,0.36c0.01,0,0.02,0,0.02,0
		C2.9,2.9,3.05,2.82,3.18,2.71C3.43,2.5,3.56,2.22,3.57,1.89c0.01-0.18,0-0.36,0-0.54c0-0.04,0-0.09,0-0.13
		c-0.26-0.05-0.41-0.2-0.45-0.45c-0.26,0-0.53,0-0.79,0c-0.02,0.12-0.06,0.22-0.15,0.3C2.1,1.16,2,1.2,1.88,1.22z"/>
	<path d="M2.67,1.1c0-0.03,0-0.05,0-0.08C2.71,1.06,2.76,1.11,2.8,1.15C2.76,1.19,2.71,1.24,2.67,1.28c0-0.03,0-0.06,0-0.09
		C2.48,1.22,2.33,1.31,2.23,1.47c-0.12,0.2-0.11,0.41,0.01,0.6c0.12,0.19,0.3,0.26,0.52,0.26C2.76,2.2,2.81,2.1,2.93,2.05
		C3.03,2,3.13,2.02,3.22,2.1c0.22-0.25,0.17-0.75-0.28-0.92C2.95,1.19,2.97,1.19,2.99,1.2c0.22,0.1,0.35,0.26,0.38,0.5
		c0.02,0.15-0.02,0.29-0.11,0.41c-0.01,0.01-0.01,0.02,0,0.03c0.11,0.17,0,0.39-0.19,0.41C2.95,2.56,2.84,2.5,2.8,2.4
		C2.79,2.38,2.78,2.38,2.77,2.38C2.63,2.39,2.51,2.36,2.4,2.29c-0.17-0.1-0.28-0.25-0.31-0.45C2.03,1.51,2.25,1.2,2.58,1.12
		C2.6,1.11,2.63,1.11,2.67,1.1z M2.78,2.28c0,0.14,0.11,0.25,0.25,0.25c0.14,0,0.25-0.11,0.25-0.25c0-0.13-0.11-0.25-0.25-0.25
		C2.9,2.04,2.79,2.15,2.78,2.28z"/>
	<path d="M2.43,1.89c0.01,0,0.02,0,0.04,0c0.07,0,0.14,0,0.22,0c0.03,0,0.04,0.01,0.04,0.04c0,0.04-0.01,0.05-0.04,0.05
		c-0.11,0-0.22,0-0.33,0c-0.03,0-0.04-0.01-0.04-0.04c0-0.05,0-0.09,0.03-0.13C2.36,1.78,2.4,1.76,2.44,1.75
		c0.03-0.01,0.07-0.02,0.1-0.03c0.01,0,0.02-0.01,0.03-0.01C2.6,1.7,2.6,1.68,2.6,1.66c0-0.02-0.01-0.04-0.04-0.04
		c-0.03,0-0.06,0-0.1,0c-0.02,0-0.04,0.02-0.05,0.04C2.41,1.67,2.39,1.68,2.37,1.68c-0.01,0-0.01,0-0.02,0
		c-0.04,0-0.05-0.02-0.04-0.05c0.01-0.04,0.04-0.07,0.07-0.08c0.03-0.01,0.05-0.02,0.08-0.02c0.06-0.01,0.12-0.01,0.18,0.02
		c0.05,0.02,0.07,0.05,0.08,0.1c0.01,0.05,0,0.1-0.05,0.14C2.63,1.81,2.58,1.82,2.54,1.83C2.51,1.84,2.48,1.85,2.45,1.86
		C2.44,1.86,2.43,1.87,2.43,1.89C2.42,1.88,2.42,1.89,2.43,1.89z"/>
	<path d="M3.02,1.9c-0.02,0-0.03,0-0.05,0c-0.07,0-0.13,0-0.2,0c-0.03,0-0.04-0.01-0.04-0.04c0-0.04,0.01-0.07,0.04-0.1
		C2.84,1.69,2.9,1.62,2.96,1.55c0.02-0.02,0.04-0.03,0.06-0.03c0.03,0,0.06,0,0.08,0c0.03,0,0.04,0.01,0.04,0.04
		c0,0.07,0,0.15,0,0.22c0,0.01,0,0.01,0,0.02C3.17,1.81,3.19,1.81,3.2,1.82c0.01,0.01,0.01,0.03,0.01,0.05
		c0,0.04-0.04,0.03-0.06,0.03c0,0.01,0,0.03,0,0.04c0,0.02-0.01,0.03-0.03,0.04c-0.02,0-0.04,0-0.06,0c-0.02,0-0.03-0.01-0.03-0.03
		c0-0.01,0-0.02,0-0.02C3.02,1.92,3.02,1.91,3.02,1.9z M3.02,1.63C2.97,1.69,2.92,1.75,2.87,1.81c0.06,0,0.11,0,0.16,0
		C3.02,1.75,3.02,1.69,3.02,1.63z"/>
	<path d="M3.09,1.17c-0.03,0-0.05-0.02-0.03-0.05C3.07,1.1,3.08,1.08,3.09,1.06C3.1,1.04,3.11,1.04,3.13,1.05
		c0.02,0.01,0.02,0.02,0.01,0.04C3.13,1.11,3.12,1.13,3.1,1.15C3.1,1.16,3.09,1.17,3.09,1.17z"/>
	<path d="M2.14,2.11c0,0,0,0.01-0.01,0.01C2.11,2.14,2.08,2.16,2.06,2.17c-0.01,0.01-0.03,0-0.04-0.01
		C2.01,2.14,2.01,2.13,2.03,2.12C2.05,2.1,2.07,2.09,2.09,2.08C2.12,2.07,2.14,2.08,2.14,2.11z"/>
	<path d="M2.14,1.39c0,0.03-0.02,0.05-0.05,0.03C2.07,1.41,2.05,1.4,2.03,1.38C2.01,1.38,2.01,1.36,2.02,1.34
		c0.01-0.02,0.02-0.02,0.04-0.01c0.02,0.01,0.05,0.03,0.07,0.04C2.13,1.38,2.14,1.38,2.14,1.39z"/>
	<path d="M3.44,2.14C3.43,2.15,3.42,2.16,3.41,2.17c-0.01,0.01-0.02,0-0.03,0C3.36,2.15,3.34,2.14,3.32,2.13
		C3.31,2.12,3.3,2.11,3.31,2.09c0.01-0.02,0.02-0.02,0.04-0.01C3.37,2.09,3.4,2.1,3.42,2.12C3.43,2.12,3.43,2.13,3.44,2.14z"/>
	<path d="M3.43,1.37c0,0-0.01,0.01-0.01,0.01C3.4,1.4,3.37,1.41,3.35,1.43c-0.01,0.01-0.03,0-0.04-0.01C3.31,1.4,3.3,1.38,3.32,1.37
		c0.02-0.01,0.04-0.03,0.07-0.04C3.41,1.32,3.43,1.34,3.43,1.37z"/>
	<path d="M2.36,1.17c0,0-0.01-0.01-0.01-0.01C2.33,1.13,2.32,1.11,2.3,1.08c-0.01-0.01,0-0.03,0.01-0.04
		c0.01-0.01,0.03-0.01,0.04,0.01C2.37,1.08,2.38,1.1,2.4,1.12C2.41,1.14,2.39,1.17,2.36,1.17z"/>
	<path d="M2.34,2.46C2.32,2.45,2.31,2.45,2.31,2.44c0-0.01,0-0.02,0-0.03c0.01-0.02,0.02-0.04,0.04-0.06
		c0.01-0.02,0.02-0.02,0.04-0.01C2.4,2.35,2.41,2.36,2.4,2.38C2.38,2.4,2.37,2.42,2.36,2.45C2.35,2.45,2.35,2.46,2.34,2.46z"/>
	<path d="M3.47,1.78c-0.01,0-0.03,0-0.04,0c-0.02,0-0.03-0.01-0.03-0.03c0-0.02,0.01-0.03,0.03-0.03c0.03,0,0.05,0,0.08,0
		c0.02,0,0.03,0.01,0.03,0.03c0,0.02-0.01,0.03-0.03,0.03c-0.01,0-0.01,0-0.02,0C3.48,1.78,3.47,1.78,3.47,1.78z"/>
	<path d="M1.98,1.72c0.01,0,0.03,0,0.04,0c0.02,0,0.03,0.01,0.03,0.03c0,0.02-0.01,0.03-0.03,0.03c-0.03,0-0.05,0-0.08,0
		c-0.02,0-0.03-0.01-0.02-0.03c0-0.02,0-0.03,0.02-0.03C1.95,1.72,1.97,1.72,1.98,1.72z"/>
	<path d="M2.75,2.5c0,0.01,0,0.03,0,0.04c0,0.02-0.01,0.03-0.03,0.03c-0.02,0-0.03-0.01-0.03-0.03c0-0.03,0-0.05,0-0.08
		c0-0.02,0.01-0.03,0.03-0.03c0.02,0,0.03,0.01,0.03,0.03c0,0,0,0,0,0C2.75,2.47,2.75,2.48,2.75,2.5z"/>
	<path d="M2.74,1.07C2.73,1.05,2.71,1.04,2.7,1.02c-0.01-0.01,0-0.03,0-0.05c0-0.02,0.01-0.03,0.03-0.03c0.02,0,0.03,0.01,0.03,0.03
		c0,0.03,0,0.05,0,0.08C2.75,1.05,2.75,1.06,2.74,1.07C2.75,1.07,2.74,1.07,2.74,1.07z"/>
	<path d="M3.43,1.45C3.42,1.45,3.41,1.46,3.41,1.46c0,0-0.01-0.01-0.01-0.01c0,0,0.01-0.01,0.01-0.01C3.41,1.43,3.42,1.44,3.43,1.45
		z"/>
	<path d="M2.51,2.46C2.5,2.47,2.5,2.47,2.49,2.47c-0.01,0-0.01-0.01-0.01-0.01c0,0,0.01-0.01,0.01-0.01C2.5,2.45,2.5,2.45,2.51,2.46
		z"/>
	<path d="M3.49,1.67C3.48,1.68,3.47,1.69,3.47,1.69c-0.01,0-0.01-0.01-0.01-0.01c0,0,0.01-0.01,0.01-0.01
		C3.47,1.66,3.48,1.67,3.49,1.67z"/>
	<path d="M3.28,1.23c0.01,0.01,0.01,0.01,0.01,0.02c0,0.01-0.01,0.01-0.01,0.02c0,0-0.01-0.01-0.01-0.01
		C3.26,1.25,3.27,1.24,3.28,1.23z"/>
	<path d="M2.19,1.25C2.18,1.26,2.17,1.27,2.17,1.27c-0.01,0-0.01-0.01-0.01-0.01c0,0,0.01-0.01,0.01-0.01
		C2.18,1.24,2.18,1.25,2.19,1.25z"/>
	<path d="M2,1.93C1.99,1.92,1.98,1.91,1.98,1.91c0,0,0.01-0.01,0.01-0.01c0,0,0.01,0.01,0.01,0.01C2.01,1.91,2,1.92,2,1.93z"/>
	<path d="M3.45,1.89C3.46,1.9,3.47,1.9,3.47,1.91c0,0.01-0.01,0.01-0.01,0.01c0,0-0.01-0.01-0.01-0.01C3.44,1.9,3.45,1.9,3.45,1.89z
		"/>
	<path d="M3.43,2C3.43,1.99,3.42,1.99,3.42,1.98c0,0,0.01-0.01,0.01-0.01c0,0,0.01,0.01,0.01,0.01C3.45,1.99,3.44,1.99,3.43,2z"/>
	<path d="M3.43,2.06C3.42,2.06,3.41,2.07,3.4,2.07c0,0-0.01-0.01-0.01-0.01c0,0,0.01-0.01,0.01-0.01C3.41,2.04,3.42,2.05,3.43,2.06z
		"/>
	<path d="M2.21,2.31C2.21,2.3,2.22,2.29,2.23,2.29c0.01,0,0.01,0.01,0.01,0.01c0,0-0.01,0.01-0.01,0.01
		C2.22,2.32,2.22,2.31,2.21,2.31z"/>
	<path d="M2.21,1.2c0.01-0.01,0.02-0.01,0.02-0.01c0.01,0,0.01,0.01,0.01,0.01c0,0-0.01,0.01-0.01,0.01C2.22,1.21,2.22,1.2,2.21,1.2
		z"/>
	<path d="M2.9,1.02C2.89,1.03,2.88,1.04,2.88,1.03c-0.01,0-0.01-0.01-0.01-0.01c0,0,0.01-0.01,0.01-0.01
		C2.88,1.01,2.89,1.02,2.9,1.02z"/>
	<path d="M2.51,1.04C2.5,1.05,2.5,1.06,2.49,1.06c-0.01,0-0.01-0.01-0.01-0.01c0,0,0.01-0.01,0.01-0.01C2.5,1.03,2.5,1.04,2.51,1.04
		z"/>
	<path d="M2.04,1.98C2.03,1.99,2.02,2,2.02,1.99C2.01,1.99,2.01,1.99,2,1.98c0,0,0.01-0.01,0.01-0.01C2.02,1.97,2.03,1.97,2.04,1.98
		z"/>
	<path d="M2.01,1.54C2.01,1.53,2,1.52,2,1.52c0-0.01,0.01-0.01,0.01-0.01c0,0,0.01,0.01,0.01,0.01C2.03,1.53,2.02,1.53,2.01,1.54z"
		/>
	<path d="M1.98,1.85C1.98,1.84,1.97,1.83,1.97,1.83c0-0.01,0.01-0.01,0.01-0.01c0,0,0.01,0.01,0.01,0.01C2,1.83,1.99,1.84,1.98,1.85
		z"/>
	<path d="M2,1.67C1.99,1.68,1.99,1.69,1.98,1.69c-0.01,0-0.01-0.01-0.01-0.01c0,0,0.01-0.01,0.01-0.01C1.99,1.66,1.99,1.67,2,1.67z"
		/>
	<path d="M2.14,1.31C2.13,1.32,2.13,1.33,2.12,1.33c0,0-0.01-0.01-0.01-0.01c0,0,0.01-0.01,0.01-0.01C2.13,1.3,2.13,1.31,2.14,1.31z
		"/>
	<path d="M2.31,2.36C2.3,2.36,2.29,2.37,2.29,2.37c-0.01,0-0.01-0.01-0.01-0.01c0,0,0.01-0.01,0.01-0.01
		C2.29,2.34,2.3,2.35,2.31,2.36z"/>
	<path d="M2.42,2.45C2.41,2.44,2.41,2.44,2.41,2.43c0,0,0.01-0.01,0.01-0.01c0,0,0.01,0.01,0.01,0.01C2.43,2.44,2.43,2.44,2.42,2.45
		z"/>
	<path d="M2.42,1.09C2.41,1.08,2.41,1.07,2.41,1.07c0,0,0.01-0.01,0.01-0.01c0.01,0,0.01,0.01,0.01,0.01
		C2.43,1.08,2.43,1.08,2.42,1.09z"/>
	<path d="M3.33,1.29C3.33,1.3,3.34,1.31,3.34,1.31c0,0.01-0.01,0.01-0.01,0.01c0,0-0.01-0.01-0.01-0.01
		C3.31,1.31,3.32,1.3,3.33,1.29z"/>
	<path d="M2.59,2.48C2.58,2.49,2.57,2.49,2.57,2.49c-0.01,0-0.01-0.01-0.01-0.01c0,0,0.01-0.01,0.01-0.01
		C2.57,2.47,2.58,2.47,2.59,2.48z"/>
	<path d="M2.67,2.49C2.66,2.5,2.65,2.51,2.65,2.51c-0.01,0-0.01-0.01-0.01-0.01c0,0,0.01-0.01,0.01-0.01
		C2.65,2.48,2.66,2.49,2.67,2.49z"/>
	<path d="M2.8,0.99C2.81,1,2.82,1,2.82,1.01c0,0.01-0.01,0.01-0.01,0.01c0,0-0.01-0.01-0.01-0.01C2.79,1.01,2.8,1,2.8,0.99z"/>
	<path d="M2.67,1.01C2.66,1.02,2.65,1.02,2.65,1.02c-0.01,0-0.01-0.01-0.01-0.01c0,0,0.01-0.01,0.01-0.01C2.65,1,2.66,1,2.67,1.01z"
		/>
	<path d="M2.97,1.04C2.96,1.05,2.96,1.06,2.95,1.05c0,0-0.01-0.01-0.01-0.01c0,0,0.01-0.01,0.01-0.01C2.96,1.03,2.97,1.04,2.97,1.04
		z"/>
	<path d="M3.24,1.2C3.23,1.2,3.23,1.21,3.22,1.21c-0.01,0-0.01-0.01-0.01-0.01c0,0,0.01-0.01,0.01-0.01
		C3.23,1.18,3.23,1.19,3.24,1.2z"/>
	<path d="M2.8,2.47c0.01,0.01,0.01,0.01,0.01,0.02c0,0.01-0.01,0.01-0.01,0.01c0,0-0.01-0.01-0.01-0.01
		C2.79,2.49,2.79,2.48,2.8,2.47z"/>
	<path d="M3.45,1.52C3.44,1.53,3.44,1.53,3.43,1.53c0,0-0.01-0.01-0.01-0.01c0,0,0.01-0.01,0.01-0.01C3.44,1.51,3.44,1.51,3.45,1.52
		z"/>
	<path d="M2.19,2.25C2.18,2.26,2.17,2.26,2.17,2.26c0,0-0.01-0.01-0.01-0.01c0,0,0.01-0.01,0.01-0.01C2.18,2.24,2.18,2.24,2.19,2.25
		z"/>
	<path d="M3.16,1.13c0.01,0.01,0.01,0.01,0.01,0.02c0,0-0.01,0.01-0.01,0.01c0,0-0.01-0.01-0.01-0.01C3.15,1.14,3.16,1.14,3.16,1.13
		z"/>
	<path d="M3.35,2.19C3.34,2.2,3.33,2.2,3.33,2.2c-0.01,0-0.01-0.01-0.01-0.01c0,0,0.01-0.01,0.01-0.01
		C3.33,2.18,3.34,2.18,3.35,2.19z"/>
	<path d="M2.12,2.21C2.11,2.2,2.11,2.19,2.11,2.19c0,0,0.01-0.01,0.01-0.01c0,0,0.01,0.01,0.01,0.01C2.13,2.2,2.13,2.2,2.12,2.21z"
		/>
	<path d="M2.31,1.15C2.3,1.15,2.29,1.16,2.29,1.16c-0.01,0-0.01-0.01-0.01-0.01c0,0,0.01-0.01,0.01-0.01
		C2.29,1.13,2.3,1.14,2.31,1.15z"/>
	<path d="M2.04,2.03c0.01,0.01,0.01,0.01,0.01,0.02c0,0.01-0.01,0.01-0.01,0.01c0,0-0.01-0.01-0.01-0.01
		C2.03,2.05,2.04,2.04,2.04,2.03z"/>
	<path d="M3.45,1.58C3.46,1.59,3.47,1.59,3.47,1.6c0,0.01-0.01,0.01-0.01,0.01c0,0-0.01-0.01-0.01-0.01
		C3.44,1.59,3.45,1.59,3.45,1.58z"/>
	<path d="M2.04,1.47C2.04,1.46,2.03,1.45,2.03,1.45c0,0,0.01-0.01,0.01-0.01c0.01,0,0.01,0.01,0.01,0.01
		C2.06,1.45,2.05,1.46,2.04,1.47z"/>
	<path d="M3.46,1.81c0.01,0.01,0.01,0.01,0.01,0.02c0,0-0.01,0.01-0.01,0.01c0,0-0.01-0.01-0.01-0.01C3.45,1.82,3.46,1.82,3.46,1.81
		z"/>
	<path d="M3.05,1.07C3.04,1.08,3.03,1.08,3.03,1.08c-0.01,0-0.01-0.01-0.01-0.01c0,0,0.01-0.01,0.01-0.01
		C3.03,1.06,3.04,1.06,3.05,1.07z"/>
	<path d="M2.59,1.02C2.58,1.03,2.57,1.03,2.57,1.03c-0.01,0-0.01-0.01-0.01-0.01c0,0,0.01-0.01,0.01-0.01
		C2.57,1.01,2.58,1.01,2.59,1.02z"/>
	<path d="M2.01,1.6C2.01,1.6,2,1.61,2,1.61c-0.01,0-0.01-0.01-0.01-0.01c0,0,0.01-0.01,0.01-0.01C2,1.58,2.01,1.59,2.01,1.6z"/>
	<path d="M3.1,2.2c-0.06,0-0.11,0-0.16,0c-0.04,0-0.04-0.02-0.03-0.05c0-0.01,0.01-0.02,0.02-0.02c0.08,0,0.16,0,0.25,0
		c0.02,0,0.02,0.01,0.02,0.02c0,0.02,0,0.04-0.01,0.05C3.14,2.29,3.1,2.37,3.05,2.45C3.05,2.46,3.03,2.47,3.02,2.47
		c-0.01,0-0.02,0-0.03,0c-0.02,0-0.03-0.01-0.02-0.03C3,2.37,3.04,2.31,3.08,2.24C3.08,2.23,3.09,2.22,3.1,2.2z"/>
</g>
<rect class="st0" width="5.59" height="4"/>
</svg>
