<?xml version="1.0" encoding="utf-8"?>
<!-- Generator: Adobe Illustrator 26.2.1, SVG Export Plug-In . SVG Version: 6.00 Build 0)  -->
<svg version="1.1" id="Layer_1" xmlns="http://www.w3.org/2000/svg" xmlns:xlink="http://www.w3.org/1999/xlink" x="0px" y="0px"
	 viewBox="0 0 55 55" style="enable-background:new 0 0 55 55;" xml:space="preserve">
<g>
	<path d="M6.82,10.91c2.88-0.08,5.36-1.06,7.38-3.09c2.02-2.02,3.02-4.5,3.08-7.37c6.96,0,13.89,0,20.8,0
		c0.67,6.34,4.15,9.85,10.54,10.54c0,0.1,0.02,0.25,0.02,0.39c0,5.02,0.02,10.03,0,15.05c-0.03,5.05-1.12,9.84-3.72,14.22
		c-2.22,3.76-5.28,6.71-8.89,9.12c-2.52,1.68-5.21,3.01-8.03,4.11c-0.14,0.06-0.34,0.08-0.47,0.02c-4.6-1.81-8.86-4.17-12.47-7.62
		c-4.02-3.84-6.55-8.49-7.65-13.94c-0.53-2.65-0.6-5.32-0.6-8c0.01-4.28,0.01-8.57,0.01-12.85C6.82,11.32,6.82,11.14,6.82,10.91z
		 M8.21,12.22c0,0.14,0,0.24,0,0.35c0,4.39,0.01,8.78,0,13.17c0,1.97,0.12,3.92,0.47,5.86c0.85,4.73,2.86,8.9,6.12,12.44
		c3.53,3.83,7.9,6.41,12.68,8.33c0.16,0.06,0.39,0.04,0.55-0.03c3.66-1.49,7.09-3.37,10.12-5.94c5.78-4.9,8.73-11.2,9.02-18.71
		c0.16-4.13,0.04-8.26,0.05-12.39c0-1.02,0-2.04,0-3.04c-5.87-1.12-9.32-4.59-10.44-10.41c-6.06,0-12.12,0-18.21,0
		c-0.36,2.7-1.47,5.03-3.38,6.95C13.28,10.74,10.94,11.85,8.21,12.22z"/>
	<path d="M26.35,9.5c0-0.63,0-1.26,0-1.88c1.03,1.04,2.04,2.08,3.04,3.1c-0.93,0.93-1.96,1.95-3.01,3c0-0.62,0-1.26,0-1.99
		c-4.31,0.6-7.76,2.53-9.96,6.24c-2.73,4.61-2.63,9.32,0.32,13.79c2.81,4.26,6.99,6.04,12.05,6.01c-0.27-3.04,0.82-5.35,3.59-6.59
		c2.43-1.09,4.7-0.56,6.68,1.21c4.95-5.74,3.83-17.17-6.46-21.1c0.36,0.13,0.73,0.25,1.09,0.4c5.04,2.2,7.99,6.02,8.65,11.48
		c0.42,3.46-0.46,6.65-2.47,9.5c-0.17,0.25-0.24,0.41-0.05,0.71c2.51,3.8,0.08,8.86-4.46,9.3c-2.55,0.25-4.98-1.12-6.04-3.47
		c-0.16-0.36-0.35-0.41-0.68-0.39c-3.03,0.18-5.87-0.47-8.49-2.01c-3.98-2.34-6.4-5.8-7.14-10.36c-1.23-7.61,3.86-14.75,11.28-16.55
		C24.94,9.76,25.61,9.65,26.35,9.5z M29.06,36.66c-0.01,3.16,2.52,5.73,5.65,5.74c3.2,0.01,5.78-2.53,5.8-5.71
		c0.01-3.09-2.58-5.72-5.64-5.73C31.65,30.96,29.08,33.48,29.06,36.66z"/>
	<path d="M20.82,27.58c0.27,0,0.54,0,0.81,0c1.66,0,3.32,0,4.98,0c0.67,0,0.9,0.25,0.91,0.96c0.01,0.84-0.2,1.1-0.91,1.11
		c-2.55,0-5.09,0-7.64,0c-0.71,0-0.92-0.24-0.94-0.93c-0.03-1.03,0-2.05,0.72-2.9c0.66-0.77,1.58-1.12,2.51-1.42
		c0.78-0.25,1.58-0.43,2.37-0.66c0.23-0.07,0.46-0.17,0.67-0.29c0.42-0.24,0.62-0.59,0.54-1.1c-0.08-0.52-0.3-0.94-0.84-0.98
		c-0.74-0.06-1.48-0.08-2.22-0.03c-0.51,0.03-0.89,0.36-1.13,0.83c-0.23,0.47-0.62,0.69-1.15,0.66c-0.12-0.01-0.25-0.01-0.37,0
		c-0.9,0.11-1.19-0.54-1.02-1.23c0.22-0.93,0.88-1.5,1.69-1.86c0.57-0.26,1.21-0.45,1.83-0.5c1.39-0.12,2.8-0.17,4.14,0.38
		c1.06,0.43,1.63,1.23,1.78,2.35c0.16,1.24-0.1,2.35-1.17,3.12c-0.9,0.65-1.96,0.95-3.02,1.24c-0.64,0.17-1.29,0.35-1.91,0.58
		c-0.26,0.1-0.47,0.36-0.7,0.55C20.77,27.48,20.79,27.53,20.82,27.58z"/>
	<path d="M34.58,27.83c-0.41,0-0.76,0-1.11,0c-1.54,0-3.08,0-4.62-0.01c-0.67,0-0.82-0.22-0.88-0.87c-0.09-0.94,0.25-1.66,0.88-2.34
		c1.42-1.55,2.79-3.14,4.17-4.73c0.39-0.45,0.84-0.66,1.44-0.63c0.64,0.02,1.28,0.02,1.92,0.01c0.7-0.01,0.94,0.21,0.94,0.9
		c0,1.68,0,3.35,0,5.03c0,0.17,0,0.33,0,0.43c0.48,0.15,1.01,0.19,1.33,0.47c0.21,0.18,0.18,0.72,0.14,1.08
		c-0.11,0.9-0.87,0.58-1.47,0.7c0,0.32,0,0.65,0,0.98c-0.01,0.53-0.25,0.79-0.78,0.81c-0.43,0.02-0.85,0.02-1.28-0.01
		c-0.45-0.02-0.66-0.25-0.68-0.7c-0.01-0.18,0-0.37,0-0.55C34.58,28.23,34.58,28.06,34.58,27.83z M34.56,21.59
		c-1.24,1.41-2.42,2.74-3.64,4.13c1.27,0,2.45,0,3.64,0C34.56,24.37,34.56,23.04,34.56,21.59z"/>
	<path d="M36.03,11.03c-0.79-0.01-1.11-0.55-0.79-1.11c0.27-0.47,0.54-0.95,0.82-1.42c0.23-0.39,0.53-0.46,0.95-0.22
		c0.39,0.23,0.49,0.53,0.27,0.9c-0.29,0.51-0.58,1.03-0.89,1.53C36.29,10.87,36.1,10.97,36.03,11.03z"/>
	<path d="M14.29,32.75c-0.04,0.06-0.11,0.24-0.25,0.32c-0.54,0.34-1.1,0.65-1.66,0.96c-0.33,0.19-0.65,0.07-0.85-0.32
		c-0.16-0.32-0.23-0.65,0.15-0.88c0.5-0.3,1-0.58,1.5-0.87C13.73,31.66,14.29,32,14.29,32.75z"/>
	<path d="M14.29,16.05c0.01,0.77-0.55,1.11-1.09,0.8c-0.49-0.28-0.98-0.56-1.46-0.85c-0.36-0.21-0.42-0.55-0.18-0.93
		c0.23-0.38,0.51-0.48,0.87-0.28c0.53,0.3,1.06,0.6,1.58,0.92C14.15,15.81,14.24,15.99,14.29,16.05z"/>
	<path d="M44.06,33.3c-0.2,0.28-0.34,0.54-0.54,0.74c-0.24,0.24-0.47,0.04-0.7-0.09c-0.49-0.28-0.97-0.56-1.46-0.84
		c-0.33-0.2-0.39-0.53-0.18-0.89c0.24-0.41,0.52-0.52,0.89-0.31c0.53,0.3,1.06,0.59,1.57,0.91C43.79,32.92,43.88,33.09,44.06,33.3z"
		/>
	<path d="M43.94,15.65c-0.04,0.06-0.12,0.23-0.26,0.32c-0.54,0.34-1.1,0.66-1.65,0.97c-0.34,0.19-0.64,0.07-0.84-0.34
		c-0.16-0.31-0.25-0.63,0.15-0.86c0.5-0.29,1-0.58,1.5-0.87C43.38,14.54,43.94,14.88,43.94,15.65z"/>
	<path d="M19.33,11.03c-0.07-0.05-0.25-0.14-0.34-0.29c-0.33-0.53-0.64-1.07-0.94-1.62c-0.18-0.33-0.06-0.65,0.34-0.85
		c0.31-0.16,0.64-0.25,0.87,0.15c0.29,0.5,0.58,1,0.87,1.5C20.43,10.46,20.09,11.03,19.33,11.03z"/>
	<path d="M18.79,40.79c-0.29-0.21-0.58-0.33-0.73-0.56c-0.09-0.14-0.02-0.46,0.07-0.65c0.25-0.5,0.54-0.99,0.83-1.47
		c0.22-0.36,0.53-0.42,0.93-0.19c0.38,0.22,0.48,0.52,0.29,0.86c-0.3,0.53-0.6,1.06-0.92,1.58C19.17,40.52,19,40.61,18.79,40.79z"/>
	<path d="M44.77,25.11c-0.29,0-0.58,0-0.87,0c-0.43-0.01-0.63-0.23-0.62-0.71c0.01-0.46,0.19-0.66,0.61-0.67
		c0.61-0.01,1.22-0.01,1.83,0c0.43,0.01,0.59,0.2,0.59,0.68c0,0.47-0.18,0.69-0.58,0.7c-0.17,0.01-0.33,0-0.5,0
		C45.07,25.11,44.92,25.11,44.77,25.11z"/>
	<path d="M10.58,23.72c0.3,0,0.61-0.01,0.91,0c0.42,0.01,0.59,0.22,0.59,0.69c0,0.47-0.18,0.69-0.59,0.69
		c-0.62,0.01-1.25,0.01-1.87,0c-0.39-0.01-0.57-0.24-0.56-0.72c0.01-0.37,0.1-0.67,0.56-0.67C9.94,23.73,10.26,23.72,10.58,23.72z"
		/>
	<path d="M28.37,41.56c0,0.29,0,0.58,0,0.87c-0.01,0.44-0.2,0.61-0.66,0.61c-0.49,0.01-0.71-0.18-0.71-0.61
		c-0.01-0.61-0.01-1.22,0-1.83c0-0.41,0.23-0.59,0.69-0.59c0.47,0,0.68,0.18,0.69,0.59c0,0.02,0,0.03,0,0.05
		C28.37,40.95,28.37,41.26,28.37,41.56z"/>
	<path d="M28.09,8.72c-0.34-0.37-0.75-0.7-0.98-1.12c-0.16-0.3-0.1-0.73-0.11-1.1c-0.01-0.56,0.21-0.75,0.78-0.71
		c0.39,0.03,0.62,0.19,0.6,0.63c-0.02,0.59,0,1.19-0.01,1.78c0,0.16-0.07,0.31-0.11,0.47C28.2,8.69,28.14,8.71,28.09,8.72z"/>
	<path d="M43.78,17.41c-0.21,0.17-0.33,0.35-0.44,0.34c-0.11,0-0.29-0.16-0.32-0.28c-0.02-0.09,0.16-0.28,0.27-0.3
		C43.41,17.15,43.55,17.29,43.78,17.41z"/>
	<path d="M22.84,40.7c-0.22,0.15-0.36,0.31-0.46,0.29c-0.12-0.02-0.21-0.2-0.32-0.31c0.11-0.1,0.21-0.27,0.33-0.28
		C22.5,40.4,22.63,40.55,22.84,40.7z"/>
	<path d="M45.16,22.64c-0.23,0.14-0.36,0.29-0.47,0.27c-0.12-0.02-0.21-0.19-0.32-0.29c0.11-0.1,0.21-0.28,0.33-0.29
		C44.82,22.31,44.94,22.47,45.16,22.64z"/>
	<path d="M40.37,12.5c0.16,0.21,0.34,0.34,0.32,0.43c-0.03,0.14-0.19,0.24-0.3,0.36c-0.1-0.11-0.27-0.21-0.29-0.33
		C40.08,12.85,40.23,12.72,40.37,12.5z"/>
	<path d="M15.41,12.96c-0.22,0.16-0.35,0.32-0.46,0.31c-0.12-0.02-0.28-0.2-0.29-0.32c-0.01-0.09,0.19-0.27,0.3-0.28
		C15.08,12.66,15.21,12.82,15.41,12.96z"/>
	<path d="M10.96,28.44c-0.16-0.21-0.32-0.33-0.32-0.44c0-0.11,0.17-0.3,0.28-0.31c0.11-0.01,0.3,0.16,0.31,0.27
		C11.25,28.08,11.1,28.21,10.96,28.44z"/>
	<path d="M44.42,27.51c0.15,0.23,0.31,0.36,0.29,0.46c-0.02,0.12-0.19,0.22-0.3,0.32c-0.11-0.11-0.28-0.21-0.3-0.33
		C44.11,27.87,44.27,27.73,44.42,27.51z"/>
	<path d="M43.93,30.17c-0.14-0.22-0.28-0.36-0.27-0.48c0.01-0.11,0.21-0.27,0.31-0.26c0.11,0.01,0.28,0.19,0.28,0.3
		C44.26,29.84,44.1,29.96,43.93,30.17z"/>
	<path d="M43.78,31.41c-0.23,0.13-0.37,0.28-0.48,0.26c-0.11-0.02-0.28-0.21-0.28-0.32c0-0.1,0.2-0.27,0.31-0.27
		C43.45,31.08,43.57,31.25,43.78,31.41z"/>
	<path d="M15.76,37.14c0.22-0.15,0.35-0.31,0.46-0.3c0.12,0.02,0.22,0.19,0.33,0.29c-0.11,0.11-0.2,0.29-0.32,0.3
		C16.12,37.45,15.99,37.29,15.76,37.14z"/>
	<path d="M15.76,11.69c0.22-0.15,0.35-0.31,0.45-0.29c0.12,0.02,0.22,0.19,0.33,0.29c-0.11,0.11-0.2,0.29-0.32,0.31
		C16.12,12.02,15.99,11.85,15.76,11.69z"/>
	<path d="M31.69,7.68c-0.21,0.15-0.34,0.31-0.45,0.29c-0.11-0.01-0.29-0.19-0.29-0.3c0-0.1,0.18-0.28,0.29-0.29
		C31.35,7.37,31.48,7.53,31.69,7.68z"/>
	<path d="M22.84,8.13c-0.22,0.15-0.35,0.32-0.45,0.3c-0.12-0.02-0.22-0.19-0.33-0.3c0.11-0.11,0.2-0.28,0.32-0.3
		C22.49,7.83,22.62,7.99,22.84,8.13z"/>
	<path d="M11.86,29.69c-0.22,0.16-0.35,0.33-0.46,0.32c-0.12-0.01-0.22-0.19-0.32-0.3c0.11-0.1,0.2-0.27,0.32-0.28
		C11.51,29.41,11.64,29.56,11.86,29.69z"/>
	<path d="M11.38,19.58c-0.14-0.22-0.29-0.36-0.28-0.47c0.02-0.12,0.2-0.21,0.3-0.31c0.1,0.11,0.27,0.22,0.29,0.34
		C11.7,19.25,11.54,19.37,11.38,19.58z"/>
	<path d="M10.64,26.67c-0.14-0.23-0.3-0.36-0.28-0.47c0.02-0.12,0.19-0.21,0.3-0.32c0.1,0.11,0.28,0.21,0.29,0.33
		C10.97,26.32,10.8,26.45,10.64,26.67z"/>
	<path d="M11.12,22.64c-0.22,0.14-0.35,0.29-0.46,0.27c-0.12-0.01-0.21-0.18-0.32-0.29c0.1-0.11,0.2-0.29,0.32-0.3
		C10.77,22.31,10.9,22.48,11.12,22.64z"/>
	<path d="M14.29,14.36c-0.22,0.15-0.35,0.3-0.47,0.29c-0.11-0.01-0.28-0.2-0.28-0.31c0-0.1,0.18-0.28,0.3-0.28
		C13.96,14.06,14.08,14.21,14.29,14.36z"/>
	<path d="M18.08,38.29c-0.22,0.13-0.36,0.28-0.47,0.26c-0.12-0.02-0.21-0.2-0.31-0.31c0.11-0.1,0.22-0.28,0.33-0.29
		C17.74,37.95,17.87,38.12,18.08,38.29z"/>
	<path d="M20.69,40.51c-0.13-0.22-0.28-0.36-0.26-0.47c0.01-0.11,0.21-0.28,0.3-0.27c0.11,0.01,0.28,0.19,0.28,0.31
		C21.02,40.19,20.85,40.31,20.69,40.51z"/>
	<path d="M20.68,9.24c-0.13-0.23-0.28-0.36-0.26-0.47c0.02-0.11,0.21-0.29,0.3-0.27c0.12,0.02,0.28,0.19,0.29,0.31
		C21.02,8.91,20.85,9.03,20.68,9.24z"/>
	<path d="M41.53,13.89c0.14,0.22,0.29,0.35,0.28,0.45c-0.02,0.12-0.19,0.22-0.29,0.33c-0.11-0.11-0.29-0.2-0.31-0.32
		C41.2,14.24,41.37,14.11,41.53,13.89z"/>
	<path d="M24.58,41.12c-0.21,0.17-0.33,0.34-0.44,0.34c-0.12-0.01-0.23-0.18-0.34-0.28c0.1-0.11,0.19-0.29,0.3-0.31
		C24.21,40.84,24.35,40.99,24.58,41.12z"/>
	<path d="M26.35,41.46c-0.23,0.14-0.37,0.3-0.47,0.28c-0.12-0.02-0.28-0.21-0.28-0.32c0-0.1,0.19-0.27,0.31-0.28
		C26.02,41.13,26.14,41.3,26.35,41.46z"/>
	<path d="M29.45,6.93c0.16,0.21,0.33,0.34,0.31,0.45c-0.01,0.12-0.19,0.22-0.29,0.34c-0.11-0.11-0.28-0.2-0.3-0.32
		C29.15,7.29,29.31,7.16,29.45,6.93z"/>
	<path d="M26.35,7.38C26.13,7.54,26,7.71,25.9,7.7c-0.12-0.01-0.22-0.19-0.33-0.3c0.11-0.11,0.2-0.28,0.32-0.3
		C25.99,7.08,26.13,7.23,26.35,7.38z"/>
	<path d="M33.42,8.2c-0.23,0.12-0.38,0.26-0.49,0.23c-0.11-0.03-0.25-0.23-0.24-0.34c0.01-0.1,0.22-0.25,0.32-0.24
		C33.12,7.86,33.23,8.03,33.42,8.2z"/>
	<path d="M39.59,11.69c-0.23,0.16-0.36,0.32-0.47,0.3c-0.12-0.02-0.22-0.2-0.32-0.31c0.11-0.1,0.21-0.27,0.33-0.29
		C39.24,11.39,39.37,11.54,39.59,11.69z"/>
	<path d="M29.43,40.97c0.17,0.21,0.34,0.33,0.34,0.44c0,0.12-0.18,0.23-0.27,0.34c-0.11-0.1-0.29-0.18-0.31-0.3
		C29.16,41.35,29.3,41.21,29.43,40.97z"/>
	<path d="M44.42,19.15c-0.22,0.14-0.36,0.29-0.47,0.27c-0.11-0.02-0.28-0.2-0.28-0.31c0-0.1,0.19-0.28,0.3-0.28
		C44.08,18.82,44.21,18.99,44.42,19.15z"/>
	<path d="M15.42,35.9c-0.23,0.13-0.37,0.28-0.48,0.26c-0.11-0.02-0.28-0.21-0.27-0.31c0.01-0.11,0.2-0.27,0.31-0.28
		C15.09,35.56,15.21,35.73,15.42,35.9z"/>
	<path d="M37.71,10.1c0.16,0.21,0.33,0.33,0.32,0.45c0,0.11-0.17,0.3-0.28,0.31c-0.11,0.01-0.29-0.16-0.31-0.27
		C37.43,10.46,37.58,10.32,37.71,10.1z"/>
	<path d="M41.99,34.49c-0.23,0.15-0.37,0.31-0.47,0.29c-0.12-0.02-0.21-0.2-0.32-0.31c0.11-0.1,0.21-0.27,0.33-0.28
		C41.64,34.17,41.77,34.33,41.99,34.49z"/>
	<path d="M13.78,34.94c-0.12-0.23-0.26-0.38-0.24-0.49c0.02-0.11,0.21-0.28,0.31-0.27c0.11,0.02,0.28,0.2,0.28,0.31
		C14.13,34.62,13.96,34.73,13.78,34.94z"/>
	<path d="M18.08,10.53c-0.22,0.17-0.33,0.34-0.45,0.34c-0.12-0.01-0.23-0.18-0.34-0.28c0.1-0.11,0.18-0.29,0.3-0.31
		C17.71,10.26,17.85,10.4,18.08,10.53z"/>
	<path d="M12,30.92c0.17,0.21,0.33,0.32,0.33,0.43c-0.01,0.12-0.17,0.31-0.27,0.32c-0.11,0.01-0.3-0.16-0.32-0.27
		C11.72,31.29,11.87,31.15,12,30.92z"/>
	<path d="M44.39,20.4c0.16,0.21,0.33,0.33,0.33,0.44c-0.01,0.12-0.18,0.22-0.29,0.33c-0.11-0.1-0.29-0.19-0.31-0.31
		C44.1,20.75,44.26,20.62,44.39,20.4z"/>
	<path d="M12.02,17.91c-0.14-0.21-0.29-0.34-0.28-0.46c0.01-0.11,0.2-0.29,0.3-0.28c0.12,0.01,0.28,0.19,0.29,0.3
		C12.34,17.58,12.17,17.71,12.02,17.91z"/>
	<path d="M44.68,25.74c0.16,0.21,0.32,0.33,0.32,0.44c-0.01,0.11-0.17,0.3-0.27,0.31c-0.11,0-0.3-0.16-0.32-0.27
		C44.38,26.11,44.53,25.97,44.68,25.74z"/>
	<path d="M35.08,8.8c-0.21,0.14-0.34,0.29-0.45,0.28c-0.12-0.02-0.29-0.19-0.29-0.3c0-0.1,0.18-0.28,0.29-0.29
		C34.75,8.48,34.87,8.64,35.08,8.8z"/>
	<path d="M24.57,7.63c-0.21,0.17-0.32,0.34-0.43,0.34c-0.12,0-0.23-0.17-0.34-0.27c0.1-0.11,0.18-0.29,0.3-0.32
		C24.2,7.36,24.34,7.5,24.57,7.63z"/>
	<path d="M11.39,20.86c-0.21,0.15-0.33,0.31-0.44,0.29c-0.12-0.01-0.3-0.18-0.3-0.29c0-0.11,0.17-0.3,0.28-0.3
		C11.04,20.55,11.17,20.71,11.39,20.86z"/>
	<path d="M36.26,34.76c-1.31,0-2.55-0.03-3.78,0.01c-0.89,0.02-0.9-0.47-0.77-1.15c0.03-0.15,0.33-0.35,0.5-0.35
		c1.89-0.03,3.78-0.02,5.67-0.01c0.35,0,0.55,0.22,0.53,0.55c-0.03,0.39-0.04,0.82-0.21,1.15c-0.95,1.84-1.95,3.65-2.93,5.47
		c-0.18,0.34-0.47,0.51-0.86,0.49c-0.26-0.01-0.52,0-0.78-0.01c-0.49-0.01-0.6-0.19-0.36-0.63c0.84-1.55,1.68-3.1,2.52-4.66
		C35.94,35.36,36.08,35.09,36.26,34.76z"/>
</g>
</svg>
