<?xml version="1.0" encoding="utf-8"?>
<!-- Generator: Adobe Illustrator 26.2.1, SVG Export Plug-In . SVG Version: 6.00 Build 0)  -->
<svg version="1.1" id="Layer_1" xmlns="http://www.w3.org/2000/svg" xmlns:xlink="http://www.w3.org/1999/xlink" x="0px" y="0px"
	 viewBox="0 0 5.59 4" style="enable-background:new 0 0 5.59 4;" xml:space="preserve">
<g>
	<path d="M1.44,1.01C1.62,1.01,1.78,0.95,1.9,0.82C2.03,0.7,2.09,0.55,2.09,0.37c0.43,0,0.86,0,1.29,0
		c0.04,0.39,0.26,0.61,0.65,0.65c0,0.01,0,0.02,0,0.02c0,0.31,0,0.62,0,0.93c0,0.31-0.07,0.61-0.23,0.88
		C3.66,3.09,3.47,3.27,3.25,3.42c-0.16,0.1-0.32,0.19-0.5,0.25c-0.01,0-0.02,0-0.03,0C2.44,3.56,2.18,3.42,1.95,3.2
		C1.71,2.97,1.55,2.68,1.48,2.34c-0.03-0.16-0.04-0.33-0.04-0.5c0-0.26,0-0.53,0-0.79C1.44,1.04,1.44,1.03,1.44,1.01z M1.53,1.1
		c0,0.01,0,0.02,0,0.02c0,0.27,0,0.54,0,0.81c0,0.12,0.01,0.24,0.03,0.36c0.05,0.29,0.18,0.55,0.38,0.77
		c0.22,0.24,0.49,0.4,0.78,0.52c0.01,0,0.02,0,0.03,0C2.98,3.49,3.2,3.37,3.38,3.21c0.36-0.3,0.54-0.69,0.56-1.16
		c0.01-0.26,0-0.51,0-0.77c0-0.06,0-0.13,0-0.19C3.58,1.03,3.37,0.82,3.3,0.46c-0.37,0-0.75,0-1.13,0C2.15,0.62,2.08,0.77,1.96,0.88
		C1.84,1,1.7,1.07,1.53,1.1z"/>
	<path d="M2.65,0.93c0-0.04,0-0.08,0-0.12C2.72,0.88,2.78,0.94,2.84,1C2.78,1.06,2.72,1.12,2.65,1.19c0-0.04,0-0.08,0-0.12
		C2.39,1.1,2.17,1.22,2.04,1.45C1.87,1.74,1.88,2.03,2.06,2.3C2.23,2.57,2.49,2.68,2.8,2.68C2.79,2.49,2.85,2.35,3.03,2.27
		C3.18,2.2,3.32,2.23,3.44,2.34c0.31-0.35,0.24-1.06-0.4-1.31c0.02,0.01,0.05,0.02,0.07,0.02C3.42,1.2,3.6,1.44,3.64,1.77
		c0.03,0.21-0.03,0.41-0.15,0.59c-0.01,0.02-0.02,0.03,0,0.04c0.16,0.23,0,0.55-0.28,0.58C3.05,3,2.9,2.91,2.84,2.77
		C2.83,2.74,2.81,2.74,2.79,2.74C2.61,2.75,2.43,2.71,2.27,2.62c-0.25-0.14-0.4-0.36-0.44-0.64c-0.08-0.47,0.24-0.91,0.7-1.02
		C2.57,0.94,2.61,0.94,2.65,0.93z M2.82,2.61c0,0.2,0.16,0.35,0.35,0.36c0.2,0,0.36-0.16,0.36-0.35c0-0.19-0.16-0.35-0.35-0.35
		C2.98,2.25,2.82,2.41,2.82,2.61z"/>
	<path d="M2.31,2.05c0.02,0,0.03,0,0.05,0c0.1,0,0.21,0,0.31,0c0.04,0,0.06,0.02,0.06,0.06c0,0.05-0.01,0.07-0.06,0.07
		c-0.16,0-0.31,0-0.47,0c-0.04,0-0.06-0.01-0.06-0.06c0-0.06,0-0.13,0.04-0.18c0.04-0.05,0.1-0.07,0.15-0.09
		c0.05-0.02,0.1-0.03,0.15-0.04c0.01,0,0.03-0.01,0.04-0.02c0.03-0.01,0.04-0.04,0.03-0.07c0-0.03-0.02-0.06-0.05-0.06
		c-0.05,0-0.09-0.01-0.14,0c-0.03,0-0.06,0.02-0.07,0.05C2.29,1.74,2.26,1.75,2.23,1.75c-0.01,0-0.02,0-0.02,0
		C2.15,1.76,2.13,1.72,2.14,1.68c0.01-0.06,0.05-0.09,0.1-0.11c0.04-0.02,0.07-0.03,0.11-0.03c0.09-0.01,0.17-0.01,0.26,0.02
		c0.07,0.03,0.1,0.08,0.11,0.15c0.01,0.08-0.01,0.15-0.07,0.19C2.6,1.93,2.53,1.95,2.47,1.97C2.43,1.98,2.39,1.99,2.35,2
		C2.33,2.01,2.32,2.03,2.31,2.05C2.31,2.04,2.31,2.04,2.31,2.05z"/>
	<path d="M3.16,2.06c-0.03,0-0.05,0-0.07,0c-0.1,0-0.19,0-0.29,0c-0.04,0-0.05-0.01-0.05-0.05C2.75,1.95,2.77,1.9,2.81,1.86
		c0.09-0.1,0.17-0.19,0.26-0.29c0.02-0.03,0.05-0.04,0.09-0.04c0.04,0,0.08,0,0.12,0c0.04,0,0.06,0.01,0.06,0.06
		c0,0.1,0,0.21,0,0.31c0,0.01,0,0.02,0,0.03c0.03,0.01,0.06,0.01,0.08,0.03C3.43,1.96,3.43,2,3.42,2.02
		C3.42,2.08,3.37,2.06,3.33,2.06c0,0.02,0,0.04,0,0.06c0,0.03-0.02,0.05-0.05,0.05c-0.03,0-0.05,0-0.08,0
		c-0.03,0-0.04-0.02-0.04-0.04c0-0.01,0-0.02,0-0.03C3.16,2.09,3.16,2.08,3.16,2.06z M3.16,1.68C3.08,1.76,3.01,1.85,2.94,1.93
		c0.08,0,0.15,0,0.23,0C3.16,1.85,3.16,1.76,3.16,1.68z"/>
	<path d="M3.25,1.02c-0.05,0-0.07-0.03-0.05-0.07c0.02-0.03,0.03-0.06,0.05-0.09c0.01-0.02,0.03-0.03,0.06-0.01
		c0.02,0.01,0.03,0.03,0.02,0.06C3.31,0.94,3.29,0.97,3.27,1C3.27,1.01,3.26,1.02,3.25,1.02z"/>
	<path d="M1.91,2.37c0,0-0.01,0.01-0.02,0.02c-0.03,0.02-0.07,0.04-0.1,0.06c-0.02,0.01-0.04,0-0.05-0.02
		C1.73,2.41,1.72,2.39,1.75,2.37c0.03-0.02,0.06-0.04,0.09-0.05C1.87,2.3,1.91,2.32,1.91,2.37z"/>
	<path d="M1.91,1.33c0,0.05-0.03,0.07-0.07,0.05C1.81,1.37,1.78,1.35,1.75,1.33C1.73,1.32,1.72,1.3,1.74,1.27
		c0.01-0.02,0.03-0.03,0.05-0.02c0.03,0.02,0.07,0.04,0.1,0.06C1.9,1.32,1.9,1.33,1.91,1.33z"/>
	<path d="M3.75,2.4C3.74,2.42,3.73,2.43,3.71,2.45c-0.01,0.01-0.03,0-0.04-0.01C3.64,2.42,3.61,2.41,3.58,2.39
		C3.56,2.38,3.56,2.36,3.57,2.33C3.58,2.31,3.6,2.3,3.63,2.31c0.03,0.02,0.07,0.04,0.1,0.06C3.73,2.38,3.74,2.39,3.75,2.4z"/>
	<path d="M3.74,1.31c0,0-0.01,0.01-0.02,0.02c-0.03,0.02-0.07,0.04-0.1,0.06c-0.02,0.01-0.04,0-0.05-0.02
		C3.56,1.35,3.55,1.33,3.58,1.31C3.61,1.3,3.64,1.28,3.67,1.26C3.71,1.24,3.74,1.26,3.74,1.31z"/>
	<path d="M2.22,1.02c0,0-0.02-0.01-0.02-0.02C2.18,0.97,2.16,0.94,2.14,0.9c-0.01-0.02,0-0.04,0.02-0.05
		C2.18,0.84,2.2,0.84,2.21,0.86c0.02,0.03,0.04,0.06,0.05,0.09C2.29,0.99,2.27,1.02,2.22,1.02z"/>
	<path d="M2.19,2.86C2.17,2.85,2.15,2.84,2.14,2.83c-0.01-0.01,0-0.03,0-0.04C2.16,2.76,2.18,2.73,2.2,2.7
		c0.01-0.02,0.03-0.03,0.06-0.01C2.28,2.7,2.28,2.72,2.27,2.74c-0.02,0.03-0.04,0.07-0.06,0.1C2.21,2.85,2.2,2.85,2.19,2.86z"/>
	<path d="M3.79,1.89c-0.02,0-0.04,0-0.05,0c-0.03,0-0.04-0.01-0.04-0.04c0-0.03,0.01-0.04,0.04-0.04c0.04,0,0.08,0,0.11,0
		c0.03,0,0.04,0.01,0.04,0.04c0,0.03-0.01,0.04-0.04,0.04c-0.01,0-0.02,0-0.03,0C3.81,1.89,3.8,1.89,3.79,1.89z"/>
	<path d="M1.68,1.81c0.02,0,0.04,0,0.06,0c0.03,0,0.04,0.01,0.04,0.04c0,0.03-0.01,0.04-0.04,0.04c-0.04,0-0.08,0-0.12,0
		c-0.02,0-0.04-0.01-0.03-0.04c0-0.02,0.01-0.04,0.03-0.04C1.64,1.81,1.66,1.81,1.68,1.81z"/>
	<path d="M2.78,2.91c0,0.02,0,0.04,0,0.05C2.78,2.99,2.77,3,2.74,3C2.71,3,2.69,2.99,2.69,2.96c0-0.04,0-0.08,0-0.11
		c0-0.03,0.01-0.04,0.04-0.04c0.03,0,0.04,0.01,0.04,0.04c0,0,0,0,0,0C2.78,2.87,2.78,2.89,2.78,2.91z"/>
	<path d="M2.76,0.88C2.74,0.86,2.71,0.84,2.7,0.81C2.69,0.79,2.69,0.77,2.69,0.74c0-0.03,0.01-0.05,0.05-0.04
		c0.02,0,0.04,0.01,0.04,0.04c0,0.04,0,0.07,0,0.11c0,0.01,0,0.02-0.01,0.03C2.77,0.88,2.76,0.88,2.76,0.88z"/>
	<path d="M3.73,1.42C3.72,1.43,3.71,1.44,3.7,1.44c-0.01,0-0.02-0.01-0.02-0.02c0-0.01,0.01-0.02,0.02-0.02
		C3.71,1.4,3.72,1.41,3.73,1.42z"/>
	<path d="M2.44,2.86C2.42,2.87,2.41,2.88,2.41,2.88c-0.01,0-0.01-0.01-0.02-0.02C2.39,2.85,2.4,2.84,2.41,2.84
		C2.41,2.84,2.42,2.85,2.44,2.86z"/>
	<path d="M3.82,1.74C3.8,1.75,3.79,1.76,3.79,1.76c-0.01,0-0.01-0.01-0.02-0.02c0.01-0.01,0.01-0.02,0.02-0.02
		C3.79,1.72,3.8,1.73,3.82,1.74z"/>
	<path d="M3.52,1.11c0.01,0.01,0.02,0.02,0.02,0.03c0,0.01-0.01,0.02-0.02,0.02C3.51,1.16,3.5,1.15,3.5,1.14
		C3.5,1.14,3.51,1.13,3.52,1.11z"/>
	<path d="M1.98,1.14C1.96,1.15,1.95,1.16,1.95,1.16c-0.01,0-0.02-0.01-0.02-0.02c0-0.01,0.01-0.02,0.02-0.02
		C1.96,1.12,1.96,1.13,1.98,1.14z"/>
	<path d="M1.7,2.1C1.69,2.09,1.68,2.08,1.68,2.07c0-0.01,0.01-0.02,0.02-0.02c0.01,0,0.02,0.01,0.02,0.02
		C1.72,2.08,1.71,2.09,1.7,2.1z"/>
	<path d="M3.77,2.04c0.01,0.01,0.02,0.02,0.02,0.03c0,0.01-0.01,0.01-0.02,0.02C3.76,2.08,3.75,2.08,3.75,2.07
		C3.75,2.06,3.76,2.06,3.77,2.04z"/>
	<path d="M3.74,2.21C3.73,2.19,3.72,2.18,3.72,2.18c0-0.01,0.01-0.02,0.02-0.02c0.01,0,0.02,0.01,0.02,0.02
		C3.76,2.19,3.75,2.19,3.74,2.21z"/>
	<path d="M3.73,2.28C3.72,2.29,3.71,2.3,3.7,2.3c-0.01,0-0.02-0.01-0.02-0.02c0-0.01,0.01-0.02,0.02-0.02
		C3.71,2.26,3.72,2.27,3.73,2.28z"/>
	<path d="M2,2.64c0.01-0.01,0.02-0.02,0.03-0.02c0.01,0,0.01,0.01,0.02,0.02C2.04,2.64,2.03,2.65,2.03,2.66
		C2.02,2.66,2.01,2.65,2,2.64z"/>
	<path d="M2,1.06c0.01-0.01,0.02-0.02,0.03-0.02c0.01,0,0.01,0.01,0.02,0.02C2.04,1.07,2.03,1.08,2.03,1.08
		C2.02,1.08,2.01,1.07,2,1.06z"/>
	<path d="M2.98,0.81C2.97,0.82,2.96,0.83,2.95,0.83c-0.01,0-0.02-0.01-0.02-0.02c0-0.01,0.01-0.02,0.02-0.02
		C2.96,0.8,2.97,0.81,2.98,0.81z"/>
	<path d="M2.44,0.84C2.42,0.85,2.41,0.86,2.41,0.86c-0.01,0-0.01-0.01-0.02-0.02C2.39,0.84,2.4,0.83,2.41,0.83
		C2.41,0.82,2.42,0.83,2.44,0.84z"/>
	<path d="M1.76,2.18C1.74,2.19,1.73,2.2,1.73,2.2c-0.01,0-0.01-0.01-0.02-0.02c0.01-0.01,0.01-0.02,0.02-0.02
		C1.73,2.16,1.74,2.17,1.76,2.18z"/>
	<path d="M1.73,1.55C1.72,1.54,1.71,1.53,1.71,1.52c0-0.01,0.01-0.01,0.02-0.02c0.01,0.01,0.02,0.01,0.02,0.02
		C1.75,1.53,1.74,1.54,1.73,1.55z"/>
	<path d="M1.68,1.99C1.67,1.98,1.66,1.97,1.66,1.96c0-0.01,0.01-0.01,0.02-0.02C1.69,1.95,1.7,1.95,1.7,1.96
		C1.7,1.97,1.69,1.98,1.68,1.99z"/>
	<path d="M1.71,1.74C1.7,1.75,1.69,1.76,1.68,1.76c-0.01,0-0.01-0.01-0.02-0.02c0.01-0.01,0.01-0.02,0.02-0.02
		C1.69,1.72,1.7,1.73,1.71,1.74z"/>
	<path d="M1.91,1.23C1.89,1.24,1.88,1.25,1.88,1.25c-0.01,0-0.02-0.01-0.02-0.02c0-0.01,0.01-0.02,0.02-0.02
		C1.89,1.21,1.89,1.22,1.91,1.23z"/>
	<path d="M2.14,2.71C2.13,2.72,2.12,2.73,2.11,2.72c-0.01,0-0.01-0.01-0.02-0.02C2.1,2.7,2.11,2.69,2.11,2.69
		C2.12,2.69,2.13,2.7,2.14,2.71z"/>
	<path d="M2.3,2.85C2.29,2.83,2.29,2.82,2.29,2.82c0-0.01,0.01-0.02,0.02-0.02c0.01,0,0.02,0.01,0.02,0.02
		C2.32,2.83,2.31,2.83,2.3,2.85z"/>
	<path d="M2.3,0.91C2.29,0.9,2.29,0.89,2.29,0.88c0-0.01,0.01-0.02,0.02-0.02c0.01,0,0.02,0.01,0.02,0.02
		C2.32,0.89,2.31,0.9,2.3,0.91z"/>
	<path d="M3.59,1.2C3.6,1.21,3.61,1.22,3.61,1.23c0,0.01-0.01,0.01-0.02,0.02C3.58,1.24,3.57,1.24,3.57,1.23
		C3.57,1.22,3.58,1.21,3.59,1.2z"/>
	<path d="M2.54,2.88C2.53,2.89,2.52,2.9,2.52,2.9c-0.01,0-0.01-0.01-0.02-0.02C2.5,2.88,2.51,2.87,2.51,2.87
		C2.52,2.87,2.53,2.88,2.54,2.88z"/>
	<path d="M2.65,2.9C2.64,2.91,2.63,2.92,2.62,2.92c-0.01,0-0.02-0.01-0.02-0.02c0-0.01,0.01-0.02,0.02-0.02
		C2.63,2.88,2.64,2.89,2.65,2.9z"/>
	<path d="M2.84,0.77C2.85,0.78,2.86,0.79,2.86,0.8c0,0.01-0.01,0.01-0.02,0.02C2.84,0.81,2.83,0.81,2.83,0.8
		C2.83,0.79,2.84,0.78,2.84,0.77z"/>
	<path d="M2.65,0.8C2.64,0.81,2.63,0.82,2.62,0.82C2.62,0.82,2.61,0.8,2.6,0.8c0.01-0.01,0.01-0.02,0.02-0.02
		C2.63,0.78,2.64,0.79,2.65,0.8z"/>
	<path d="M3.09,0.85C3.08,0.85,3.07,0.86,3.06,0.86c-0.01,0-0.02-0.01-0.02-0.02c0-0.01,0.01-0.02,0.02-0.02
		C3.07,0.83,3.08,0.84,3.09,0.85z"/>
	<path d="M3.47,1.06C3.46,1.07,3.45,1.08,3.44,1.08c-0.01,0-0.01-0.01-0.02-0.02c0.01-0.01,0.01-0.02,0.02-0.02
		C3.45,1.04,3.46,1.05,3.47,1.06z"/>
	<path d="M2.84,2.87C2.85,2.89,2.86,2.9,2.86,2.9c0,0.01-0.01,0.01-0.02,0.02C2.84,2.92,2.83,2.91,2.83,2.9
		C2.83,2.9,2.84,2.89,2.84,2.87z"/>
	<path d="M3.77,1.52C3.76,1.53,3.75,1.54,3.74,1.54c-0.01,0-0.02-0.01-0.02-0.02c0-0.01,0.01-0.02,0.02-0.02
		C3.75,1.5,3.76,1.51,3.77,1.52z"/>
	<path d="M1.98,2.56C1.96,2.57,1.95,2.58,1.95,2.58c-0.01,0-0.02-0.01-0.02-0.02c0-0.01,0.01-0.02,0.02-0.02
		C1.96,2.54,1.96,2.55,1.98,2.56z"/>
	<path d="M3.36,0.96c0.01,0.01,0.02,0.02,0.02,0.03c0,0.01-0.01,0.02-0.02,0.02C3.35,1.01,3.34,1,3.34,0.99
		C3.34,0.99,3.35,0.98,3.36,0.96z"/>
	<path d="M3.62,2.47C3.61,2.48,3.6,2.49,3.59,2.49c-0.01,0-0.01-0.01-0.02-0.02c0.01-0.01,0.01-0.02,0.02-0.02
		C3.6,2.45,3.61,2.46,3.62,2.47z"/>
	<path d="M1.88,2.5C1.87,2.49,1.86,2.48,1.86,2.47c0-0.01,0.01-0.02,0.02-0.02c0.01,0,0.02,0.01,0.02,0.02
		C1.9,2.48,1.89,2.49,1.88,2.5z"/>
	<path d="M2.14,0.99C2.13,1,2.12,1.01,2.11,1.01C2.11,1.01,2.1,1,2.09,0.99C2.1,0.99,2.1,0.98,2.11,0.98
		C2.12,0.97,2.13,0.98,2.14,0.99z"/>
	<path d="M1.77,2.25c0.01,0.01,0.02,0.02,0.02,0.03c0,0.01-0.01,0.02-0.02,0.02c-0.01,0-0.02-0.01-0.02-0.02
		C1.75,2.28,1.76,2.27,1.77,2.25z"/>
	<path d="M3.77,1.6c0.01,0.01,0.02,0.02,0.02,0.03c0,0.01-0.01,0.01-0.02,0.02C3.76,1.64,3.75,1.64,3.75,1.63
		C3.75,1.62,3.76,1.62,3.77,1.6z"/>
	<path d="M1.77,1.45C1.76,1.43,1.75,1.43,1.75,1.42c0-0.01,0.01-0.02,0.02-0.02c0.01,0,0.02,0.01,0.02,0.02
		C1.79,1.43,1.78,1.44,1.77,1.45z"/>
	<path d="M3.79,1.93C3.8,1.95,3.81,1.95,3.81,1.96c0,0.01-0.01,0.02-0.02,0.02c-0.01,0-0.02-0.01-0.02-0.02
		C3.77,1.95,3.78,1.95,3.79,1.93z"/>
	<path d="M3.19,0.88C3.18,0.89,3.17,0.9,3.16,0.9c-0.01,0-0.02-0.01-0.02-0.02c0-0.01,0.01-0.02,0.02-0.02
		C3.17,0.86,3.18,0.87,3.19,0.88z"/>
	<path d="M2.54,0.81C2.53,0.82,2.52,0.83,2.52,0.83c-0.01,0-0.01-0.01-0.02-0.02C2.5,0.81,2.51,0.8,2.51,0.8
		C2.52,0.8,2.53,0.8,2.54,0.81z"/>
	<path d="M1.73,1.63C1.71,1.64,1.71,1.65,1.7,1.65c-0.01,0-0.02-0.01-0.02-0.02c0-0.01,0.01-0.02,0.02-0.02
		C1.71,1.61,1.71,1.62,1.73,1.63z"/>
	<path d="M3.27,2.49c-0.08,0-0.16,0-0.23,0c-0.05,0-0.06-0.03-0.05-0.07C2.99,2.41,3,2.4,3.02,2.4c0.12,0,0.23,0,0.35,0
		c0.02,0,0.03,0.01,0.03,0.03c0,0.02,0,0.05-0.01,0.07C3.33,2.62,3.27,2.73,3.2,2.84C3.19,2.86,3.18,2.87,3.15,2.87
		c-0.02,0-0.03,0-0.05,0c-0.03,0-0.04-0.01-0.02-0.04c0.05-0.1,0.1-0.19,0.16-0.29C3.25,2.53,3.25,2.51,3.27,2.49z"/>
</g>
</svg>
