<?xml version="1.0" encoding="utf-8"?>
<!-- Generator: Adobe Illustrator 26.2.1, SVG Export Plug-In . SVG Version: 6.00 Build 0)  -->
<svg version="1.1" id="Layer_1" xmlns="http://www.w3.org/2000/svg" xmlns:xlink="http://www.w3.org/1999/xlink" x="0px" y="0px"
	 viewBox="0 0 18 18" style="enable-background:new 0 0 18 18;" xml:space="preserve">
<g>
	<path d="M6.83,7.71c0.23-0.01,0.42-0.08,0.58-0.24c0.16-0.16,0.24-0.35,0.24-0.58c0.55,0,1.1,0,1.64,0
		c0.05,0.5,0.33,0.78,0.83,0.83c0,0.01,0,0.02,0,0.03c0,0.4,0,0.79,0,1.19c0,0.4-0.09,0.78-0.29,1.12c-0.18,0.3-0.42,0.53-0.7,0.72
		c-0.2,0.13-0.41,0.24-0.63,0.32c-0.01,0-0.03,0.01-0.04,0c-0.36-0.14-0.7-0.33-0.98-0.6c-0.32-0.3-0.52-0.67-0.6-1.1
		C6.84,9.2,6.83,8.99,6.83,8.78c0-0.34,0-0.68,0-1.01C6.83,7.75,6.83,7.73,6.83,7.71z M6.95,7.82c0,0.01,0,0.02,0,0.03
		c0,0.35,0,0.69,0,1.04c0,0.16,0.01,0.31,0.04,0.46c0.07,0.37,0.23,0.7,0.48,0.98c0.28,0.3,0.62,0.51,1,0.66
		c0.01,0.01,0.03,0,0.04,0c0.29-0.12,0.56-0.27,0.8-0.47c0.46-0.39,0.69-0.88,0.71-1.48c0.01-0.33,0-0.65,0-0.98
		c0-0.08,0-0.16,0-0.24C9.56,7.73,9.29,7.46,9.2,7C8.72,7,8.24,7,7.76,7C7.74,7.21,7.65,7.4,7.5,7.55C7.34,7.7,7.16,7.79,6.95,7.82z
		"/>
	<path d="M8.38,7.6c0-0.05,0-0.1,0-0.15C8.46,7.54,8.54,7.62,8.62,7.7C8.54,7.77,8.46,7.85,8.38,7.94c0-0.05,0-0.1,0-0.16
		c-0.34,0.05-0.61,0.2-0.79,0.49C7.38,8.64,7.38,9.01,7.62,9.36C7.84,9.7,8.17,9.84,8.57,9.83C8.55,9.59,8.63,9.41,8.85,9.31
		c0.19-0.09,0.37-0.04,0.53,0.1c0.39-0.45,0.3-1.36-0.51-1.67C8.9,7.76,8.93,7.76,8.95,7.78c0.4,0.17,0.63,0.48,0.68,0.91
		C9.67,8.96,9.6,9.21,9.44,9.43c-0.01,0.02-0.02,0.03,0,0.06c0.2,0.3,0.01,0.7-0.35,0.73c-0.2,0.02-0.39-0.09-0.48-0.27
		C8.6,9.92,8.58,9.92,8.56,9.92C8.32,9.93,8.09,9.88,7.89,9.76C7.57,9.58,7.38,9.3,7.32,8.94c-0.1-0.6,0.3-1.16,0.89-1.31
		C8.27,7.62,8.32,7.62,8.38,7.6z M8.59,9.75c0,0.25,0.2,0.45,0.45,0.45c0.25,0,0.46-0.2,0.46-0.45c0-0.24-0.2-0.45-0.45-0.45
		C8.8,9.3,8.59,9.5,8.59,9.75z"/>
	<path d="M7.94,9.03c0.02,0,0.04,0,0.06,0c0.13,0,0.26,0,0.39,0c0.05,0,0.07,0.02,0.07,0.08c0,0.07-0.02,0.09-0.07,0.09
		c-0.2,0-0.4,0-0.6,0c-0.06,0-0.07-0.02-0.07-0.07c0-0.08,0-0.16,0.06-0.23C7.83,8.83,7.9,8.8,7.97,8.78
		C8.04,8.76,8.1,8.75,8.16,8.73C8.18,8.72,8.2,8.71,8.21,8.7c0.03-0.02,0.05-0.05,0.04-0.09C8.25,8.58,8.23,8.54,8.19,8.54
		c-0.06-0.01-0.12-0.01-0.18,0c-0.04,0-0.07,0.03-0.09,0.07C7.91,8.64,7.88,8.66,7.84,8.65c-0.01,0-0.02,0-0.03,0
		c-0.07,0.01-0.09-0.04-0.08-0.1C7.74,8.48,7.8,8.44,7.86,8.41C7.9,8.39,7.95,8.38,8,8.37C8.11,8.36,8.22,8.36,8.33,8.4
		c0.08,0.03,0.13,0.1,0.14,0.19c0.01,0.1-0.01,0.19-0.09,0.25c-0.07,0.05-0.15,0.08-0.24,0.1c-0.05,0.01-0.1,0.03-0.15,0.05
		C7.97,8.98,7.95,9,7.93,9.02C7.94,9.02,7.94,9.03,7.94,9.03z"/>
	<path d="M9.03,9.05c-0.03,0-0.06,0-0.09,0c-0.12,0-0.24,0-0.36,0c-0.05,0-0.06-0.02-0.07-0.07C8.5,8.91,8.52,8.85,8.57,8.8
		C8.69,8.67,8.8,8.55,8.9,8.42c0.03-0.04,0.07-0.05,0.11-0.05c0.05,0,0.1,0,0.15,0c0.06,0,0.07,0.02,0.07,0.07c0,0.13,0,0.26,0,0.4
		c0,0.01,0,0.03,0,0.03c0.04,0.01,0.08,0.02,0.11,0.04C9.36,8.93,9.36,8.97,9.36,9C9.35,9.07,9.29,9.04,9.24,9.05
		c0,0.03,0,0.05,0,0.08c0,0.04-0.02,0.06-0.06,0.06c-0.03,0-0.07,0-0.1,0c-0.04,0-0.05-0.02-0.05-0.06c0-0.01,0-0.03,0-0.04
		C9.03,9.08,9.03,9.07,9.03,9.05z M9.02,8.56c-0.1,0.11-0.19,0.22-0.29,0.33c0.1,0,0.19,0,0.29,0C9.02,8.78,9.02,8.67,9.02,8.56z"/>
	<path d="M9.14,7.72c-0.06,0-0.09-0.04-0.06-0.09C9.1,7.6,9.12,7.56,9.14,7.52c0.02-0.03,0.04-0.04,0.07-0.02
		c0.03,0.02,0.04,0.04,0.02,0.07C9.22,7.62,9.19,7.66,9.17,7.7C9.16,7.71,9.15,7.72,9.14,7.72z"/>
	<path d="M7.43,9.44c0,0-0.01,0.02-0.02,0.03C7.36,9.49,7.32,9.52,7.27,9.54C7.25,9.55,7.22,9.55,7.21,9.51
		C7.19,9.49,7.19,9.46,7.22,9.45C7.26,9.42,7.3,9.4,7.34,9.38C7.38,9.35,7.43,9.38,7.43,9.44z"/>
	<path d="M7.43,8.12c0,0.06-0.04,0.09-0.09,0.06C7.3,8.16,7.26,8.14,7.22,8.12C7.2,8.1,7.19,8.07,7.21,8.04
		c0.02-0.03,0.04-0.04,0.07-0.02C7.32,8.04,7.36,8.07,7.4,8.09C7.41,8.1,7.42,8.12,7.43,8.12z"/>
	<path d="M9.77,9.48C9.76,9.5,9.75,9.52,9.73,9.54c-0.02,0.02-0.04,0-0.05-0.01C9.64,9.51,9.6,9.49,9.56,9.47
		C9.54,9.45,9.53,9.43,9.55,9.4c0.02-0.03,0.04-0.04,0.07-0.02C9.66,9.4,9.7,9.42,9.74,9.44C9.75,9.45,9.76,9.47,9.77,9.48z"/>
	<path d="M9.76,8.09c0,0-0.01,0.02-0.02,0.02C9.7,8.14,9.66,8.17,9.61,8.19C9.59,8.2,9.56,8.2,9.55,8.16
		C9.53,8.14,9.53,8.11,9.56,8.09C9.6,8.07,9.64,8.05,9.68,8.03C9.72,8,9.76,8.03,9.76,8.09z"/>
	<path d="M7.82,7.72C7.82,7.72,7.8,7.71,7.8,7.7C7.77,7.66,7.75,7.62,7.72,7.57c-0.01-0.03,0-0.05,0.03-0.07
		C7.77,7.49,7.8,7.49,7.82,7.52C7.84,7.56,7.86,7.6,7.89,7.64C7.91,7.68,7.88,7.72,7.82,7.72z"/>
	<path d="M7.78,10.07c-0.02-0.02-0.05-0.03-0.06-0.04c-0.01-0.01,0-0.04,0.01-0.05C7.75,9.94,7.77,9.9,7.79,9.86
		c0.02-0.03,0.04-0.03,0.07-0.01C7.9,9.86,7.91,9.89,7.89,9.91C7.87,9.96,7.84,10,7.82,10.04C7.81,10.05,7.8,10.06,7.78,10.07z"/>
	<path d="M9.83,8.84c-0.02,0-0.05,0-0.07,0c-0.03,0-0.05-0.02-0.05-0.06c0-0.04,0.01-0.05,0.05-0.05c0.05,0,0.1,0,0.14,0
		c0.03,0,0.05,0.02,0.05,0.05c0,0.04-0.01,0.05-0.05,0.06c-0.01,0-0.03,0-0.04,0C9.85,8.84,9.84,8.84,9.83,8.84z"/>
	<path d="M7.13,8.73c0.02,0,0.05,0,0.07,0c0.03,0,0.05,0.02,0.05,0.05c0,0.04-0.01,0.05-0.05,0.05c-0.05,0-0.1,0-0.15,0
		c-0.03,0-0.05-0.02-0.04-0.06c0-0.03,0.01-0.05,0.04-0.05C7.08,8.73,7.11,8.73,7.13,8.73z"/>
	<path d="M8.54,10.13c0,0.02,0,0.05,0,0.07c0,0.03-0.02,0.05-0.05,0.05c-0.04,0-0.06-0.01-0.06-0.05c0-0.05,0-0.1,0-0.14
		c0-0.03,0.02-0.05,0.05-0.05c0.04,0,0.05,0.01,0.05,0.05c0,0,0,0,0,0C8.54,10.09,8.54,10.11,8.54,10.13z"/>
	<path d="M8.51,7.54C8.49,7.51,8.45,7.49,8.44,7.45C8.42,7.43,8.43,7.4,8.43,7.37c0-0.04,0.02-0.06,0.06-0.06
		c0.03,0,0.05,0.01,0.05,0.05c0,0.05,0,0.09,0,0.14c0,0.01-0.01,0.02-0.01,0.04C8.52,7.54,8.52,7.54,8.51,7.54z"/>
	<path d="M9.75,8.23C9.74,8.24,9.73,8.25,9.72,8.25c-0.01,0-0.02-0.01-0.02-0.02c0-0.01,0.01-0.02,0.02-0.02
		C9.72,8.21,9.73,8.22,9.75,8.23z"/>
	<path d="M8.1,10.07c-0.02,0.01-0.03,0.02-0.04,0.02c-0.01,0-0.02-0.02-0.03-0.02c0.01-0.01,0.02-0.02,0.03-0.02
		C8.07,10.04,8.08,10.05,8.1,10.07z"/>
	<path d="M9.86,8.64C9.84,8.65,9.83,8.66,9.82,8.66c-0.01,0-0.02-0.01-0.03-0.02c0.01-0.01,0.02-0.02,0.03-0.02
		C9.83,8.61,9.84,8.63,9.86,8.64z"/>
	<path d="M9.48,7.84C9.5,7.86,9.51,7.87,9.51,7.87c0,0.01-0.02,0.02-0.02,0.03C9.48,7.89,9.46,7.89,9.46,7.88
		C9.46,7.87,9.47,7.86,9.48,7.84z"/>
	<path d="M7.51,7.88C7.5,7.89,7.49,7.9,7.48,7.9c-0.01,0-0.02-0.02-0.02-0.03c0-0.01,0.01-0.02,0.02-0.02
		C7.49,7.85,7.5,7.87,7.51,7.88z"/>
	<path d="M7.16,9.1C7.15,9.08,7.14,9.07,7.14,9.06c0-0.01,0.01-0.02,0.02-0.02c0.01,0,0.02,0.01,0.02,0.02
		C7.18,9.07,7.17,9.08,7.16,9.1z"/>
	<path d="M9.8,9.02c0.01,0.02,0.02,0.03,0.02,0.04c0,0.01-0.02,0.02-0.02,0.03C9.79,9.08,9.78,9.07,9.78,9.06
		C9.78,9.05,9.79,9.04,9.8,9.02z"/>
	<path d="M9.76,9.23C9.75,9.22,9.74,9.21,9.74,9.2c0-0.01,0.02-0.02,0.02-0.02c0.01,0,0.02,0.01,0.02,0.02
		C9.79,9.21,9.78,9.22,9.76,9.23z"/>
	<path d="M9.75,9.33C9.73,9.34,9.72,9.35,9.71,9.35c-0.01,0-0.02-0.02-0.02-0.02c0-0.01,0.02-0.02,0.02-0.02
		C9.73,9.31,9.74,9.32,9.75,9.33z"/>
	<path d="M7.54,9.78c0.02-0.01,0.03-0.02,0.04-0.02c0.01,0,0.02,0.01,0.03,0.02C7.59,9.79,7.59,9.81,7.58,9.81
		C7.57,9.81,7.56,9.8,7.54,9.78z"/>
	<path d="M7.54,7.78c0.02-0.01,0.03-0.02,0.04-0.02c0.01,0,0.02,0.01,0.03,0.02C7.59,7.78,7.59,7.8,7.58,7.8
		C7.57,7.8,7.56,7.79,7.54,7.78z"/>
	<path d="M8.8,7.46C8.78,7.47,8.77,7.48,8.76,7.48c-0.01,0-0.02-0.02-0.02-0.02c0-0.01,0.01-0.02,0.02-0.02
		C8.77,7.44,8.78,7.45,8.8,7.46z"/>
	<path d="M8.1,7.5C8.08,7.51,8.07,7.52,8.06,7.52c-0.01,0-0.02-0.02-0.03-0.02c0.01-0.01,0.02-0.02,0.03-0.02
		C8.07,7.47,8.08,7.48,8.1,7.5z"/>
	<path d="M7.23,9.2C7.22,9.21,7.21,9.22,7.2,9.22c-0.01,0-0.02-0.02-0.03-0.02C7.18,9.19,7.19,9.18,7.2,9.18
		C7.21,9.17,7.22,9.19,7.23,9.2z"/>
	<path d="M7.19,8.4C7.18,8.38,7.17,8.37,7.17,8.36c0-0.01,0.02-0.02,0.02-0.02c0.01,0.01,0.02,0.02,0.02,0.03
		C7.22,8.37,7.21,8.38,7.19,8.4z"/>
	<path d="M7.14,8.96C7.13,8.94,7.11,8.93,7.11,8.92c0-0.01,0.02-0.02,0.02-0.03c0.01,0.01,0.02,0.02,0.02,0.03
		C7.16,8.93,7.15,8.94,7.14,8.96z"/>
	<path d="M7.17,8.64C7.16,8.65,7.15,8.66,7.14,8.66c-0.01,0-0.02-0.01-0.03-0.02c0.01-0.01,0.02-0.02,0.02-0.02
		C7.15,8.61,7.16,8.63,7.17,8.64z"/>
	<path d="M7.43,7.99C7.41,8,7.4,8.01,7.39,8.01c-0.01,0-0.02-0.02-0.02-0.02c0-0.01,0.01-0.02,0.02-0.02
		C7.4,7.96,7.41,7.98,7.43,7.99z"/>
	<path d="M7.72,9.88C7.71,9.89,7.7,9.9,7.69,9.9c-0.01,0-0.02-0.02-0.02-0.02c0.01-0.01,0.02-0.02,0.03-0.02
		C7.7,9.85,7.71,9.86,7.72,9.88z"/>
	<path d="M7.93,10.05c-0.01-0.02-0.02-0.03-0.02-0.04c0-0.01,0.02-0.02,0.02-0.02c0.01,0,0.02,0.02,0.02,0.02
		C7.96,10.03,7.94,10.03,7.93,10.05z"/>
	<path d="M7.93,7.58C7.92,7.56,7.91,7.55,7.91,7.55c0-0.01,0.02-0.02,0.02-0.02c0.01,0,0.02,0.02,0.02,0.02
		C7.96,7.56,7.94,7.57,7.93,7.58z"/>
	<path d="M9.57,7.95C9.59,7.97,9.6,7.98,9.6,7.99C9.6,8,9.58,8,9.57,8.01C9.57,8,9.55,8,9.55,7.99C9.55,7.98,9.56,7.97,9.57,7.95z"
		/>
	<path d="M8.24,10.1c-0.02,0.01-0.03,0.03-0.03,0.03c-0.01,0-0.02-0.01-0.03-0.02c0.01-0.01,0.01-0.02,0.02-0.02
		C8.21,10.08,8.22,10.09,8.24,10.1z"/>
	<path d="M8.38,10.13c-0.02,0.01-0.03,0.02-0.04,0.02c-0.01,0-0.02-0.02-0.02-0.02c0-0.01,0.02-0.02,0.02-0.02
		C8.35,10.1,8.36,10.11,8.38,10.13z"/>
	<path d="M8.62,7.4c0.01,0.02,0.03,0.03,0.02,0.04c0,0.01-0.01,0.02-0.02,0.03C8.61,7.45,8.6,7.45,8.6,7.44
		C8.6,7.43,8.61,7.42,8.62,7.4z"/>
	<path d="M8.38,7.44C8.36,7.45,8.35,7.46,8.34,7.46c-0.01,0-0.02-0.02-0.03-0.02c0.01-0.01,0.02-0.02,0.03-0.02
		C8.35,7.41,8.36,7.42,8.38,7.44z"/>
	<path d="M8.93,7.5C8.92,7.51,8.9,7.52,8.9,7.52c-0.01,0-0.02-0.02-0.02-0.03c0-0.01,0.02-0.02,0.03-0.02
		C8.91,7.47,8.92,7.49,8.93,7.5z"/>
	<path d="M9.42,7.78C9.4,7.79,9.39,7.8,9.39,7.8c-0.01,0-0.02-0.02-0.03-0.02c0.01-0.01,0.02-0.02,0.03-0.02
		C9.39,7.75,9.4,7.76,9.42,7.78z"/>
	<path d="M8.62,10.09c0.01,0.02,0.03,0.03,0.03,0.03c0,0.01-0.01,0.02-0.02,0.03c-0.01-0.01-0.02-0.01-0.02-0.02
		C8.6,10.12,8.61,10.11,8.62,10.09z"/>
	<path d="M9.8,8.36C9.78,8.38,9.77,8.39,9.77,8.39c-0.01,0-0.02-0.02-0.02-0.02c0-0.01,0.02-0.02,0.02-0.02
		C9.78,8.34,9.79,8.35,9.8,8.36z"/>
	<path d="M7.51,9.69C7.5,9.7,7.48,9.71,7.48,9.71c-0.01,0-0.02-0.02-0.02-0.02c0-0.01,0.02-0.02,0.02-0.02
		C7.49,9.66,7.5,9.67,7.51,9.69z"/>
	<path d="M9.27,7.65C9.29,7.67,9.3,7.68,9.3,7.69c0,0.01-0.01,0.02-0.02,0.02c-0.01,0-0.02-0.01-0.02-0.02
		C9.25,7.68,9.26,7.67,9.27,7.65z"/>
	<path d="M9.61,9.58C9.59,9.59,9.58,9.6,9.57,9.6c-0.01,0-0.02-0.02-0.02-0.02c0.01-0.01,0.02-0.02,0.03-0.02
		C9.58,9.55,9.59,9.56,9.61,9.58z"/>
	<path d="M7.38,9.61C7.38,9.59,7.36,9.58,7.37,9.57c0-0.01,0.02-0.02,0.02-0.02c0.01,0,0.02,0.02,0.02,0.02
		C7.41,9.59,7.4,9.59,7.38,9.61z"/>
	<path d="M7.72,7.68C7.71,7.7,7.7,7.71,7.69,7.71c-0.01,0-0.02-0.01-0.03-0.02c0.01-0.01,0.01-0.02,0.02-0.02
		C7.69,7.66,7.71,7.67,7.72,7.68z"/>
	<path d="M7.24,9.29c0.01,0.02,0.03,0.03,0.03,0.03c0,0.01-0.01,0.02-0.02,0.02c-0.01,0-0.02-0.01-0.03-0.02
		C7.22,9.32,7.23,9.31,7.24,9.29z"/>
	<path d="M9.8,8.46C9.81,8.48,9.83,8.49,9.83,8.5c0,0.01-0.01,0.02-0.02,0.03C9.8,8.52,9.78,8.51,9.78,8.5
		C9.78,8.49,9.79,8.48,9.8,8.46z"/>
	<path d="M7.25,8.27C7.23,8.25,7.22,8.24,7.22,8.23c0-0.01,0.02-0.02,0.02-0.02c0.01,0,0.02,0.01,0.02,0.02
		C7.27,8.24,7.26,8.25,7.25,8.27z"/>
	<path d="M9.82,8.88C9.84,8.9,9.85,8.91,9.85,8.92c0,0.01-0.01,0.02-0.02,0.02c-0.01,0-0.02-0.01-0.03-0.02
		C9.8,8.91,9.81,8.9,9.82,8.88z"/>
	<path d="M9.07,7.55C9.05,7.56,9.04,7.57,9.03,7.57c-0.01,0-0.02-0.02-0.02-0.02c0-0.01,0.01-0.02,0.02-0.02
		C9.04,7.52,9.05,7.54,9.07,7.55z"/>
	<path d="M8.24,7.46C8.22,7.47,8.21,7.48,8.2,7.48c-0.01,0-0.02-0.01-0.03-0.02C8.18,7.45,8.19,7.44,8.2,7.44
		C8.21,7.43,8.22,7.45,8.24,7.46z"/>
	<path d="M7.2,8.5C7.18,8.51,7.17,8.52,7.16,8.52c-0.01,0-0.02-0.01-0.02-0.02c0-0.01,0.01-0.02,0.02-0.02
		C7.17,8.48,7.18,8.49,7.2,8.5z"/>
	<path d="M9.16,9.6c-0.1,0-0.2,0-0.3,0c-0.07,0-0.07-0.04-0.06-0.09c0-0.01,0.03-0.03,0.04-0.03c0.15,0,0.3,0,0.45,0
		c0.03,0,0.04,0.02,0.04,0.04c0,0.03,0,0.06-0.02,0.09C9.24,9.76,9.16,9.9,9.08,10.04c-0.01,0.03-0.04,0.04-0.07,0.04
		c-0.02,0-0.04,0-0.06,0c-0.04,0-0.05-0.02-0.03-0.05c0.07-0.12,0.13-0.25,0.2-0.37C9.13,9.64,9.14,9.62,9.16,9.6z"/>
</g>
</svg>
