<?xml version="1.0" encoding="utf-8"?>
<!-- Generator: Adobe Illustrator 26.2.1, SVG Export Plug-In . SVG Version: 6.00 Build 0)  -->
<svg version="1.1" id="Layer_1" xmlns="http://www.w3.org/2000/svg" xmlns:xlink="http://www.w3.org/1999/xlink" x="0px" y="0px"
	 viewBox="0 0 7 7" style="enable-background:new 0 0 7 7;" xml:space="preserve">
<g>
	<path d="M1.83,2.21c0.23-0.01,0.42-0.08,0.58-0.24c0.16-0.16,0.24-0.35,0.24-0.58c0.55,0,1.1,0,1.64,0
		c0.05,0.5,0.33,0.78,0.83,0.83c0,0.01,0,0.02,0,0.03c0,0.4,0,0.79,0,1.19c0,0.4-0.09,0.78-0.29,1.12c-0.18,0.3-0.42,0.53-0.7,0.72
		C3.93,5.41,3.72,5.52,3.5,5.61c-0.01,0-0.03,0.01-0.04,0c-0.36-0.14-0.7-0.33-0.98-0.6c-0.32-0.3-0.52-0.67-0.6-1.1
		C1.83,3.7,1.83,3.49,1.83,3.28c0-0.34,0-0.68,0-1.01C1.83,2.25,1.83,2.23,1.83,2.21z M1.94,2.32c0,0.01,0,0.02,0,0.03
		c0,0.35,0,0.69,0,1.04c0,0.16,0.01,0.31,0.04,0.46c0.07,0.37,0.23,0.7,0.48,0.98c0.28,0.3,0.62,0.51,1,0.66
		c0.01,0.01,0.03,0,0.04,0c0.29-0.12,0.56-0.27,0.8-0.47c0.46-0.39,0.69-0.88,0.71-1.48c0.01-0.33,0-0.65,0-0.98
		c0-0.08,0-0.16,0-0.24C4.56,2.23,4.28,1.96,4.19,1.5c-0.48,0-0.96,0-1.44,0C2.73,1.71,2.64,1.9,2.49,2.05
		C2.34,2.2,2.15,2.29,1.94,2.32z"/>
	<path d="M3.37,2.1c0-0.05,0-0.1,0-0.15C3.45,2.04,3.53,2.12,3.61,2.2C3.54,2.27,3.46,2.35,3.37,2.44c0-0.05,0-0.1,0-0.16
		c-0.34,0.05-0.61,0.2-0.79,0.49C2.37,3.14,2.38,3.51,2.61,3.86C2.83,4.2,3.16,4.34,3.56,4.33C3.54,4.09,3.63,3.91,3.85,3.81
		c0.19-0.09,0.37-0.04,0.53,0.1c0.39-0.45,0.3-1.36-0.51-1.67c0.03,0.01,0.06,0.02,0.09,0.03c0.4,0.17,0.63,0.48,0.68,0.91
		C4.66,3.46,4.6,3.71,4.44,3.93c-0.01,0.02-0.02,0.03,0,0.06c0.2,0.3,0.01,0.7-0.35,0.73C3.88,4.74,3.69,4.63,3.6,4.45
		C3.59,4.42,3.58,4.42,3.55,4.42C3.31,4.43,3.09,4.38,2.88,4.26C2.57,4.08,2.37,3.8,2.32,3.44c-0.1-0.6,0.3-1.16,0.89-1.31
		C3.26,2.12,3.31,2.12,3.37,2.1z M3.58,4.25c0,0.25,0.2,0.45,0.45,0.45c0.25,0,0.46-0.2,0.46-0.45c0-0.24-0.2-0.45-0.45-0.45
		C3.79,3.8,3.59,4,3.58,4.25z"/>
	<path d="M2.93,3.53c0.02,0,0.04,0,0.06,0c0.13,0,0.26,0,0.39,0c0.05,0,0.07,0.02,0.07,0.08c0,0.07-0.02,0.09-0.07,0.09
		c-0.2,0-0.4,0-0.6,0c-0.06,0-0.07-0.02-0.07-0.07c0-0.08,0-0.16,0.06-0.23c0.05-0.06,0.12-0.09,0.2-0.11
		c0.06-0.02,0.12-0.03,0.19-0.05C3.17,3.22,3.19,3.21,3.21,3.2c0.03-0.02,0.05-0.05,0.04-0.09C3.24,3.08,3.23,3.04,3.18,3.04
		c-0.06-0.01-0.12-0.01-0.18,0c-0.04,0-0.07,0.03-0.09,0.07C2.9,3.14,2.87,3.16,2.83,3.15c-0.01,0-0.02,0-0.03,0
		c-0.07,0.01-0.09-0.04-0.08-0.1c0.02-0.07,0.07-0.12,0.13-0.15C2.9,2.89,2.95,2.88,3,2.87C3.11,2.86,3.22,2.86,3.32,2.9
		C3.41,2.93,3.45,3,3.46,3.09c0.01,0.1-0.01,0.19-0.09,0.25C3.3,3.38,3.22,3.41,3.13,3.43c-0.05,0.01-0.1,0.03-0.15,0.05
		C2.96,3.48,2.95,3.5,2.93,3.52C2.93,3.52,2.93,3.53,2.93,3.53z"/>
	<path d="M4.02,3.55c-0.03,0-0.06,0-0.09,0c-0.12,0-0.24,0-0.36,0c-0.05,0-0.06-0.02-0.07-0.07C3.49,3.41,3.52,3.35,3.57,3.3
		C3.68,3.17,3.79,3.05,3.9,2.92c0.03-0.04,0.07-0.05,0.11-0.05c0.05,0,0.1,0,0.15,0c0.06,0,0.07,0.02,0.07,0.07c0,0.13,0,0.26,0,0.4
		c0,0.01,0,0.03,0,0.03c0.04,0.01,0.08,0.02,0.11,0.04C4.36,3.43,4.36,3.47,4.35,3.5C4.34,3.57,4.28,3.54,4.24,3.55
		c0,0.03,0,0.05,0,0.08c0,0.04-0.02,0.06-0.06,0.06c-0.03,0-0.07,0-0.1,0c-0.04,0-0.05-0.02-0.05-0.06c0-0.01,0-0.03,0-0.04
		C4.02,3.58,4.02,3.57,4.02,3.55z M4.02,3.06c-0.1,0.11-0.19,0.22-0.29,0.33c0.1,0,0.19,0,0.29,0C4.02,3.28,4.02,3.17,4.02,3.06z"/>
	<path d="M4.13,2.22c-0.06,0-0.09-0.04-0.06-0.09C4.09,2.1,4.11,2.06,4.14,2.02c0.02-0.03,0.04-0.04,0.07-0.02
		c0.03,0.02,0.04,0.04,0.02,0.07C4.21,2.12,4.19,2.16,4.16,2.2C4.15,2.21,4.14,2.22,4.13,2.22z"/>
	<path d="M2.42,3.94c0,0-0.01,0.02-0.02,0.03C2.36,3.99,2.31,4.02,2.27,4.04C2.24,4.05,2.22,4.05,2.2,4.01
		C2.19,3.99,2.18,3.96,2.21,3.95C2.25,3.92,2.29,3.9,2.33,3.88C2.37,3.85,2.42,3.88,2.42,3.94z"/>
	<path d="M2.42,2.62c0,0.06-0.04,0.09-0.09,0.06C2.29,2.66,2.26,2.64,2.22,2.62C2.19,2.6,2.18,2.57,2.2,2.54
		c0.02-0.03,0.04-0.04,0.07-0.02C2.31,2.54,2.35,2.57,2.4,2.59C2.41,2.6,2.41,2.62,2.42,2.62z"/>
	<path d="M4.77,3.98C4.75,4,4.74,4.02,4.72,4.04c-0.02,0.02-0.04,0-0.05-0.01C4.63,4.01,4.59,3.99,4.56,3.97
		C4.53,3.95,4.52,3.93,4.54,3.9c0.02-0.03,0.04-0.04,0.07-0.02C4.65,3.9,4.69,3.92,4.73,3.94C4.75,3.95,4.75,3.97,4.77,3.98z"/>
	<path d="M4.76,2.59c0,0-0.01,0.02-0.02,0.02C4.7,2.64,4.65,2.67,4.61,2.69C4.58,2.7,4.56,2.7,4.54,2.66
		C4.53,2.64,4.52,2.61,4.55,2.59c0.04-0.02,0.08-0.05,0.12-0.07C4.71,2.5,4.76,2.53,4.76,2.59z"/>
	<path d="M2.82,2.22c-0.01,0-0.02-0.01-0.03-0.02C2.76,2.16,2.74,2.12,2.71,2.07c-0.01-0.03,0-0.05,0.03-0.07
		c0.02-0.01,0.05-0.02,0.07,0.01C2.83,2.06,2.86,2.1,2.88,2.14C2.9,2.18,2.88,2.22,2.82,2.22z"/>
	<path d="M2.77,4.57C2.75,4.56,2.73,4.55,2.72,4.53c-0.01-0.01,0-0.04,0.01-0.05C2.74,4.44,2.76,4.4,2.79,4.36
		C2.8,4.33,2.83,4.33,2.86,4.35C2.89,4.36,2.9,4.39,2.88,4.41C2.86,4.46,2.84,4.5,2.81,4.54C2.8,4.55,2.79,4.56,2.77,4.57z"/>
	<path d="M4.82,3.34c-0.02,0-0.05,0-0.07,0c-0.03,0-0.05-0.02-0.05-0.06c0-0.04,0.01-0.05,0.05-0.05c0.05,0,0.1,0,0.14,0
		c0.03,0,0.05,0.02,0.05,0.05c0,0.04-0.01,0.05-0.05,0.06c-0.01,0-0.03,0-0.04,0C4.85,3.34,4.84,3.34,4.82,3.34z"/>
	<path d="M2.13,3.23c0.02,0,0.05,0,0.07,0c0.03,0,0.05,0.02,0.05,0.05c0,0.04-0.01,0.05-0.05,0.05c-0.05,0-0.1,0-0.15,0
		C2.02,3.33,2,3.32,2.01,3.28c0-0.03,0.01-0.05,0.04-0.05C2.07,3.23,2.1,3.23,2.13,3.23z"/>
	<path d="M3.53,4.63c0,0.02,0,0.05,0,0.07c0,0.03-0.02,0.05-0.05,0.05c-0.04,0-0.06-0.01-0.06-0.05c0-0.05,0-0.1,0-0.14
		c0-0.03,0.02-0.05,0.05-0.05c0.04,0,0.05,0.01,0.05,0.05c0,0,0,0,0,0C3.53,4.59,3.53,4.61,3.53,4.63z"/>
	<path d="M3.51,2.04C3.48,2.01,3.45,1.99,3.43,1.95C3.42,1.93,3.42,1.9,3.42,1.87c0-0.04,0.02-0.06,0.06-0.06
		c0.03,0,0.05,0.01,0.05,0.05c0,0.05,0,0.09,0,0.14c0,0.01-0.01,0.02-0.01,0.04C3.52,2.04,3.51,2.04,3.51,2.04z"/>
	<path d="M4.75,2.73C4.73,2.74,4.72,2.75,4.71,2.75c-0.01,0-0.02-0.01-0.02-0.02c0-0.01,0.01-0.02,0.02-0.02
		C4.72,2.71,4.73,2.72,4.75,2.73z"/>
	<path d="M3.09,4.57C3.08,4.58,3.07,4.59,3.06,4.59c-0.01,0-0.02-0.02-0.03-0.02c0.01-0.01,0.02-0.02,0.03-0.02
		C3.07,4.54,3.08,4.55,3.09,4.57z"/>
	<path d="M4.85,3.14C4.84,3.15,4.83,3.16,4.82,3.16c-0.01,0-0.02-0.01-0.03-0.02C4.8,3.13,4.81,3.12,4.82,3.12
		C4.83,3.11,4.84,3.13,4.85,3.14z"/>
	<path d="M4.48,2.34C4.49,2.36,4.5,2.37,4.5,2.37c0,0.01-0.02,0.02-0.02,0.03C4.47,2.39,4.46,2.39,4.46,2.38
		C4.45,2.37,4.47,2.36,4.48,2.34z"/>
	<path d="M2.51,2.38C2.49,2.39,2.48,2.4,2.47,2.4c-0.01,0-0.02-0.02-0.02-0.03c0-0.01,0.01-0.02,0.02-0.02
		C2.48,2.35,2.49,2.37,2.51,2.38z"/>
	<path d="M2.16,3.6C2.14,3.58,2.13,3.57,2.13,3.56c0-0.01,0.01-0.02,0.02-0.02c0.01,0,0.02,0.01,0.02,0.02
		C2.18,3.57,2.17,3.58,2.16,3.6z"/>
	<path d="M4.8,3.52c0.01,0.02,0.02,0.03,0.02,0.04c0,0.01-0.02,0.02-0.02,0.03C4.79,3.58,4.77,3.57,4.77,3.56
		C4.77,3.55,4.78,3.54,4.8,3.52z"/>
	<path d="M4.76,3.73C4.75,3.72,4.74,3.71,4.74,3.7c0-0.01,0.02-0.02,0.02-0.02c0.01,0,0.02,0.01,0.02,0.02
		C4.78,3.71,4.77,3.72,4.76,3.73z"/>
	<path d="M4.75,3.83C4.73,3.84,4.72,3.85,4.71,3.85c-0.01,0-0.02-0.02-0.02-0.02c0-0.01,0.02-0.02,0.02-0.02
		C4.72,3.81,4.73,3.82,4.75,3.83z"/>
	<path d="M2.53,4.28c0.02-0.01,0.03-0.02,0.04-0.02c0.01,0,0.02,0.01,0.03,0.02C2.59,4.29,2.58,4.31,2.57,4.31
		C2.56,4.31,2.55,4.3,2.53,4.28z"/>
	<path d="M2.53,2.28c0.02-0.01,0.03-0.02,0.04-0.02c0.01,0,0.02,0.01,0.03,0.02C2.59,2.28,2.58,2.3,2.57,2.3
		C2.56,2.3,2.55,2.29,2.53,2.28z"/>
	<path d="M3.79,1.96C3.77,1.97,3.76,1.98,3.76,1.98c-0.01,0-0.02-0.02-0.02-0.02c0-0.01,0.01-0.02,0.02-0.02
		C3.76,1.94,3.77,1.95,3.79,1.96z"/>
	<path d="M3.09,2C3.08,2.01,3.07,2.02,3.06,2.02C3.05,2.02,3.04,2,3.03,2c0.01-0.01,0.02-0.02,0.03-0.02C3.07,1.97,3.08,1.98,3.09,2
		z"/>
	<path d="M2.23,3.7C2.21,3.71,2.2,3.72,2.19,3.72c-0.01,0-0.02-0.02-0.03-0.02c0.01-0.01,0.02-0.02,0.03-0.02
		C2.2,3.67,2.21,3.69,2.23,3.7z"/>
	<path d="M2.19,2.9C2.18,2.88,2.17,2.87,2.17,2.86c0-0.01,0.02-0.02,0.02-0.02C2.2,2.85,2.21,2.85,2.21,2.86
		C2.21,2.87,2.2,2.88,2.19,2.9z"/>
	<path d="M2.13,3.46C2.12,3.44,2.11,3.43,2.11,3.42c0-0.01,0.02-0.02,0.02-0.03c0.01,0.01,0.02,0.02,0.02,0.03
		C2.16,3.43,2.14,3.44,2.13,3.46z"/>
	<path d="M2.17,3.14C2.15,3.15,2.14,3.16,2.13,3.16c-0.01,0-0.02-0.01-0.03-0.02c0.01-0.01,0.02-0.02,0.02-0.02
		C2.14,3.11,2.15,3.13,2.17,3.14z"/>
	<path d="M2.42,2.49C2.4,2.5,2.39,2.51,2.38,2.51c-0.01,0-0.02-0.02-0.02-0.02c0-0.01,0.01-0.02,0.02-0.02
		C2.39,2.46,2.4,2.48,2.42,2.49z"/>
	<path d="M2.72,4.38C2.7,4.39,2.69,4.4,2.68,4.4c-0.01,0-0.02-0.02-0.02-0.02c0.01-0.01,0.02-0.02,0.03-0.02
		C2.69,4.35,2.7,4.36,2.72,4.38z"/>
	<path d="M2.92,4.55C2.91,4.53,2.9,4.52,2.9,4.51c0-0.01,0.02-0.02,0.02-0.02c0.01,0,0.02,0.02,0.02,0.02
		C2.95,4.53,2.94,4.53,2.92,4.55z"/>
	<path d="M2.92,2.08C2.91,2.06,2.9,2.05,2.9,2.05c0-0.01,0.02-0.02,0.02-0.02c0.01,0,0.02,0.02,0.02,0.02
		C2.95,2.06,2.94,2.07,2.92,2.08z"/>
	<path d="M4.57,2.45c0.01,0.02,0.02,0.03,0.02,0.04c0,0.01-0.01,0.02-0.02,0.03C4.56,2.5,4.54,2.5,4.54,2.49
		C4.54,2.48,4.56,2.47,4.57,2.45z"/>
	<path d="M3.23,4.6C3.21,4.61,3.2,4.63,3.2,4.63c-0.01,0-0.02-0.01-0.03-0.02c0.01-0.01,0.01-0.02,0.02-0.02
		C3.2,4.58,3.21,4.59,3.23,4.6z"/>
	<path d="M3.37,4.63C3.35,4.64,3.34,4.65,3.33,4.65c-0.01,0-0.02-0.02-0.02-0.02c0-0.01,0.02-0.02,0.02-0.02
		C3.34,4.6,3.35,4.61,3.37,4.63z"/>
	<path d="M3.61,1.9c0.01,0.02,0.03,0.03,0.02,0.04c0,0.01-0.01,0.02-0.02,0.03C3.61,1.95,3.59,1.95,3.59,1.94
		C3.59,1.93,3.6,1.92,3.61,1.9z"/>
	<path d="M3.37,1.94C3.35,1.95,3.34,1.96,3.33,1.96c-0.01,0-0.02-0.02-0.03-0.02c0.01-0.01,0.02-0.02,0.03-0.02
		C3.34,1.91,3.35,1.92,3.37,1.94z"/>
	<path d="M3.93,2C3.91,2.01,3.9,2.02,3.89,2.02C3.88,2.02,3.87,2,3.87,1.99c0-0.01,0.02-0.02,0.03-0.02C3.9,1.97,3.91,1.99,3.93,2z"
		/>
	<path d="M4.42,2.28C4.4,2.29,4.39,2.3,4.38,2.3c-0.01,0-0.02-0.02-0.03-0.02c0.01-0.01,0.02-0.02,0.03-0.02
		C4.39,2.25,4.4,2.26,4.42,2.28z"/>
	<path d="M3.61,4.59C3.63,4.6,3.64,4.61,3.64,4.62c0,0.01-0.01,0.02-0.02,0.03C3.61,4.64,3.6,4.63,3.59,4.63
		C3.59,4.62,3.6,4.61,3.61,4.59z"/>
	<path d="M4.8,2.86C4.78,2.88,4.77,2.89,4.76,2.89c-0.01,0-0.02-0.02-0.02-0.02c0-0.01,0.02-0.02,0.02-0.02
		C4.77,2.84,4.78,2.85,4.8,2.86z"/>
	<path d="M2.51,4.19C2.49,4.2,2.48,4.21,2.47,4.21c-0.01,0-0.02-0.02-0.02-0.02c0-0.01,0.02-0.02,0.02-0.02
		C2.48,4.16,2.49,4.17,2.51,4.19z"/>
	<path d="M4.27,2.15c0.01,0.02,0.03,0.03,0.03,0.04c0,0.01-0.01,0.02-0.02,0.02c-0.01,0-0.02-0.01-0.02-0.02
		C4.24,2.18,4.26,2.17,4.27,2.15z"/>
	<path d="M4.6,4.08C4.59,4.09,4.58,4.1,4.57,4.1c-0.01,0-0.02-0.02-0.02-0.02c0.01-0.01,0.02-0.02,0.03-0.02
		C4.58,4.05,4.59,4.06,4.6,4.08z"/>
	<path d="M2.38,4.11C2.37,4.09,2.36,4.08,2.36,4.07c0-0.01,0.02-0.02,0.02-0.02c0.01,0,0.02,0.02,0.02,0.02
		C2.41,4.09,2.39,4.09,2.38,4.11z"/>
	<path d="M2.72,2.18C2.7,2.2,2.69,2.21,2.68,2.21c-0.01,0-0.02-0.01-0.03-0.02c0.01-0.01,0.01-0.02,0.02-0.02
		C2.69,2.16,2.7,2.17,2.72,2.18z"/>
	<path d="M2.24,3.79c0.01,0.02,0.03,0.03,0.03,0.03c0,0.01-0.01,0.02-0.02,0.02c-0.01,0-0.02-0.01-0.03-0.02
		C2.22,3.82,2.23,3.81,2.24,3.79z"/>
	<path d="M4.79,2.96C4.81,2.98,4.82,2.99,4.82,3c0,0.01-0.01,0.02-0.02,0.03C4.79,3.02,4.77,3.01,4.77,3
		C4.77,2.99,4.78,2.98,4.79,2.96z"/>
	<path d="M2.24,2.77C2.23,2.75,2.22,2.74,2.22,2.73c0-0.01,0.02-0.02,0.02-0.02c0.01,0,0.02,0.01,0.02,0.02
		C2.26,2.74,2.25,2.75,2.24,2.77z"/>
	<path d="M4.82,3.38C4.83,3.4,4.84,3.41,4.84,3.42c0,0.01-0.01,0.02-0.02,0.02c-0.01,0-0.02-0.01-0.03-0.02
		C4.79,3.41,4.81,3.4,4.82,3.38z"/>
	<path d="M4.06,2.05C4.04,2.06,4.03,2.07,4.02,2.07C4.01,2.07,4,2.05,4,2.05c0-0.01,0.01-0.02,0.02-0.02
		C4.03,2.02,4.04,2.04,4.06,2.05z"/>
	<path d="M3.23,1.96C3.21,1.97,3.2,1.98,3.2,1.98c-0.01,0-0.02-0.01-0.03-0.02c0.01-0.01,0.01-0.02,0.02-0.02
		C3.2,1.93,3.21,1.95,3.23,1.96z"/>
	<path d="M2.19,3C2.17,3.01,2.16,3.02,2.15,3.02C2.14,3.02,2.13,3.01,2.13,3c0-0.01,0.01-0.02,0.02-0.02C2.16,2.98,2.17,2.99,2.19,3
		z"/>
	<path d="M4.15,4.1c-0.1,0-0.2,0-0.3,0c-0.07,0-0.07-0.04-0.06-0.09C3.8,4,3.82,3.98,3.83,3.98c0.15,0,0.3,0,0.45,0
		c0.03,0,0.04,0.02,0.04,0.04c0,0.03,0,0.06-0.02,0.09C4.23,4.26,4.15,4.4,4.07,4.54C4.06,4.57,4.04,4.58,4.01,4.58
		c-0.02,0-0.04,0-0.06,0c-0.04,0-0.05-0.02-0.03-0.05c0.07-0.12,0.13-0.25,0.2-0.37C4.13,4.14,4.14,4.12,4.15,4.1z"/>
</g>
</svg>
