<?xml version="1.0" encoding="utf-8"?>
<!-- Generator: Adobe Illustrator 26.2.1, SVG Export Plug-In . SVG Version: 6.00 Build 0)  -->
<svg version="1.1" id="Layer_1" xmlns="http://www.w3.org/2000/svg" xmlns:xlink="http://www.w3.org/1999/xlink" x="0px" y="0px"
	 viewBox="0 0 35 35" style="enable-background:new 0 0 35 35;" xml:space="preserve">
<g>
	<path d="M4.95,8.07c1.73-0.05,3.22-0.64,4.44-1.85c1.21-1.22,1.81-2.7,1.85-4.43c4.19,0,8.35,0,12.5,0c0.4,3.81,2.5,5.92,6.34,6.34
		c0,0.06,0.01,0.15,0.01,0.24c0,3.01,0.01,6.03,0,9.04c-0.02,3.04-0.68,5.91-2.24,8.55c-1.34,2.26-3.17,4.03-5.34,5.48
		c-1.51,1.01-3.13,1.81-4.82,2.47c-0.08,0.03-0.2,0.05-0.28,0.01c-2.76-1.09-5.33-2.51-7.49-4.58c-2.41-2.31-3.94-5.11-4.6-8.38
		c-0.32-1.59-0.36-3.2-0.36-4.81c0.01-2.57,0-5.15,0-7.72C4.95,8.31,4.95,8.21,4.95,8.07z M5.79,8.86c0,0.08,0,0.15,0,0.21
		c0,2.64,0,5.28,0,7.92c0,1.18,0.07,2.36,0.28,3.53c0.51,2.84,1.72,5.35,3.68,7.48c2.12,2.3,4.75,3.85,7.62,5.01
		c0.09,0.04,0.23,0.02,0.33-0.02c2.2-0.9,4.26-2.03,6.08-3.57c3.47-2.95,5.25-6.73,5.42-11.25c0.09-2.48,0.03-4.97,0.03-7.45
		c0-0.61,0-1.22,0-1.83c-3.53-0.67-5.6-2.76-6.27-6.26c-3.64,0-7.29,0-10.95,0c-0.22,1.63-0.89,3.02-2.03,4.18
		C8.83,7.96,7.42,8.64,5.79,8.86z"/>
	<path d="M16.69,7.22c0-0.38,0-0.76,0-1.13c0.62,0.63,1.23,1.25,1.83,1.86c-0.56,0.56-1.18,1.17-1.81,1.8c0-0.37,0-0.76,0-1.19
		c-2.59,0.36-4.67,1.52-5.99,3.75c-1.64,2.77-1.58,5.61,0.19,8.29c1.69,2.56,4.2,3.63,7.24,3.61c-0.16-1.83,0.49-3.22,2.16-3.96
		c1.46-0.65,2.82-0.33,4.01,0.73c2.97-3.45,2.3-10.32-3.88-12.69c0.22,0.08,0.44,0.15,0.65,0.24c3.03,1.32,4.8,3.62,5.2,6.9
		c0.25,2.08-0.27,4-1.48,5.71c-0.1,0.15-0.15,0.25-0.03,0.43c1.51,2.28,0.05,5.33-2.68,5.59c-1.53,0.15-2.99-0.68-3.63-2.09
		c-0.1-0.22-0.21-0.25-0.41-0.24c-1.82,0.11-3.53-0.28-5.1-1.21c-2.39-1.4-3.85-3.49-4.29-6.22c-0.74-4.58,2.32-8.87,6.78-9.95
		C15.84,7.38,16.25,7.31,16.69,7.22z M18.32,23.55c-0.01,1.9,1.52,3.45,3.4,3.45c1.92,0.01,3.48-1.52,3.48-3.43
		c0.01-1.85-1.55-3.44-3.39-3.44C19.88,20.12,18.33,21.64,18.32,23.55z"/>
	<path d="M13.37,18.09c0.16,0,0.32,0,0.48,0c1,0,2,0,3,0c0.4,0,0.54,0.15,0.55,0.58c0,0.51-0.12,0.66-0.55,0.66
		c-1.53,0-3.06,0-4.59,0c-0.42,0-0.55-0.14-0.57-0.56c-0.02-0.62,0-1.23,0.43-1.74c0.4-0.47,0.95-0.68,1.51-0.86
		c0.47-0.15,0.95-0.26,1.43-0.4c0.14-0.04,0.28-0.1,0.4-0.17c0.25-0.15,0.37-0.36,0.32-0.66c-0.05-0.31-0.18-0.56-0.51-0.59
		c-0.44-0.04-0.89-0.05-1.34-0.02c-0.3,0.02-0.54,0.22-0.68,0.5c-0.14,0.28-0.37,0.42-0.69,0.4c-0.07,0-0.15-0.01-0.22,0
		c-0.54,0.06-0.71-0.32-0.61-0.74c0.13-0.56,0.53-0.9,1.01-1.12c0.35-0.15,0.73-0.27,1.1-0.3c0.84-0.07,1.68-0.1,2.49,0.23
		c0.64,0.26,0.98,0.74,1.07,1.41c0.1,0.75-0.06,1.41-0.7,1.87c-0.54,0.39-1.18,0.57-1.82,0.74c-0.39,0.1-0.78,0.21-1.15,0.35
		c-0.16,0.06-0.28,0.22-0.42,0.33C13.33,18.03,13.35,18.06,13.37,18.09z"/>
	<path d="M21.64,18.24c-0.25,0-0.46,0-0.67,0c-0.93,0-1.85,0-2.78,0c-0.4,0-0.49-0.13-0.53-0.53c-0.05-0.57,0.15-1,0.53-1.41
		c0.86-0.93,1.68-1.89,2.51-2.84c0.24-0.27,0.51-0.4,0.86-0.38c0.38,0.01,0.77,0.01,1.15,0c0.42-0.01,0.57,0.12,0.57,0.54
		c0,1.01,0,2.02,0,3.02c0,0.1,0,0.2,0,0.26c0.29,0.09,0.61,0.11,0.8,0.28c0.12,0.11,0.11,0.43,0.08,0.65
		c-0.06,0.54-0.52,0.35-0.88,0.42c0,0.19,0,0.39,0,0.59c-0.01,0.32-0.15,0.47-0.47,0.49c-0.26,0.01-0.51,0.01-0.77,0
		c-0.27-0.01-0.39-0.15-0.41-0.42c-0.01-0.11,0-0.22,0-0.33C21.64,18.48,21.64,18.38,21.64,18.24z M21.62,14.49
		c-0.75,0.85-1.45,1.65-2.19,2.48c0.76,0,1.47,0,2.19,0C21.62,16.16,21.62,15.36,21.62,14.49z"/>
	<path d="M22.51,8.14c-0.48-0.01-0.67-0.33-0.47-0.67c0.16-0.28,0.33-0.57,0.49-0.85c0.14-0.24,0.32-0.28,0.57-0.13
		c0.24,0.14,0.29,0.32,0.16,0.54c-0.18,0.31-0.35,0.62-0.54,0.92C22.66,8.04,22.55,8.1,22.51,8.14z"/>
	<path d="M9.44,21.2c-0.03,0.03-0.07,0.14-0.15,0.19c-0.33,0.2-0.66,0.39-1,0.58c-0.2,0.11-0.39,0.04-0.51-0.19
		c-0.1-0.19-0.14-0.39,0.09-0.53c0.3-0.18,0.6-0.35,0.9-0.52C9.1,20.54,9.44,20.74,9.44,21.2z"/>
	<path d="M9.44,11.16c0,0.46-0.33,0.67-0.66,0.48c-0.29-0.17-0.59-0.34-0.88-0.51C7.69,11,7.66,10.8,7.8,10.57
		c0.14-0.23,0.31-0.29,0.52-0.17c0.32,0.18,0.64,0.36,0.95,0.55C9.35,11.01,9.41,11.12,9.44,11.16z"/>
	<path d="M27.33,21.53c-0.12,0.17-0.2,0.33-0.33,0.45c-0.14,0.14-0.29,0.02-0.42-0.05c-0.29-0.17-0.59-0.33-0.87-0.51
		c-0.2-0.12-0.24-0.32-0.11-0.54c0.14-0.25,0.31-0.31,0.54-0.18c0.32,0.18,0.64,0.36,0.94,0.55C27.17,21.3,27.23,21.4,27.33,21.53z"
		/>
	<path d="M27.26,10.92c-0.03,0.03-0.07,0.14-0.15,0.19c-0.33,0.2-0.66,0.4-0.99,0.58c-0.2,0.11-0.38,0.04-0.51-0.2
		c-0.1-0.19-0.15-0.38,0.09-0.52c0.3-0.17,0.6-0.35,0.9-0.52C26.93,10.25,27.26,10.46,27.26,10.92z"/>
	<path d="M12.47,8.14c-0.04-0.03-0.15-0.09-0.2-0.17c-0.2-0.32-0.38-0.64-0.57-0.97c-0.11-0.2-0.04-0.39,0.2-0.51
		c0.19-0.09,0.38-0.15,0.52,0.09c0.17,0.3,0.35,0.6,0.52,0.9C13.13,7.8,12.93,8.14,12.47,8.14z"/>
	<path d="M12.15,26.03c-0.17-0.12-0.35-0.2-0.44-0.34c-0.06-0.09-0.01-0.28,0.04-0.39c0.15-0.3,0.33-0.59,0.5-0.88
		c0.13-0.22,0.32-0.25,0.56-0.11c0.23,0.13,0.29,0.31,0.17,0.52c-0.18,0.32-0.36,0.64-0.55,0.95
		C12.38,25.87,12.27,25.92,12.15,26.03z"/>
	<path d="M27.76,16.6c-0.17,0-0.35,0-0.52,0c-0.26-0.01-0.38-0.14-0.37-0.43c0-0.28,0.11-0.4,0.37-0.4c0.37,0,0.73,0,1.1,0
		c0.26,0,0.35,0.12,0.36,0.41c0,0.28-0.11,0.41-0.35,0.42c-0.1,0-0.2,0-0.3,0C27.94,16.6,27.85,16.6,27.76,16.6z"/>
	<path d="M7.21,15.77c0.18,0,0.37,0,0.55,0c0.25,0.01,0.35,0.13,0.35,0.41c0,0.28-0.11,0.41-0.35,0.42c-0.38,0-0.75,0.01-1.13,0
		c-0.24,0-0.35-0.15-0.34-0.43c0.01-0.22,0.06-0.4,0.34-0.4C6.82,15.77,7.02,15.77,7.21,15.77z"/>
	<path d="M17.9,26.49c0,0.17,0,0.35,0,0.52c-0.01,0.26-0.12,0.36-0.4,0.37c-0.29,0-0.43-0.11-0.43-0.37c0-0.37,0-0.73,0-1.1
		c0-0.25,0.14-0.36,0.41-0.36c0.28,0,0.41,0.11,0.42,0.35c0,0.01,0,0.02,0,0.03C17.9,26.13,17.9,26.31,17.9,26.49z"/>
	<path d="M17.73,6.76c-0.2-0.22-0.45-0.42-0.59-0.67c-0.1-0.18-0.06-0.44-0.07-0.66c-0.01-0.34,0.13-0.45,0.47-0.43
		c0.23,0.02,0.37,0.11,0.36,0.38c-0.01,0.36,0,0.71-0.01,1.07c0,0.09-0.04,0.19-0.06,0.28C17.8,6.73,17.77,6.74,17.73,6.76z"/>
	<path d="M27.17,11.98c-0.13,0.11-0.2,0.21-0.26,0.21c-0.07,0-0.18-0.1-0.19-0.17c-0.01-0.05,0.09-0.17,0.16-0.18
		C26.94,11.82,27.03,11.9,27.17,11.98z"/>
	<path d="M14.58,25.98c-0.13,0.09-0.22,0.19-0.28,0.18c-0.07-0.01-0.13-0.12-0.19-0.19c0.07-0.06,0.13-0.16,0.2-0.17
		C14.38,25.79,14.45,25.89,14.58,25.98z"/>
	<path d="M28,15.12c-0.14,0.08-0.22,0.17-0.28,0.16c-0.07-0.01-0.13-0.11-0.19-0.18c0.07-0.06,0.13-0.17,0.2-0.17
		C27.79,14.92,27.87,15.02,28,15.12z"/>
	<path d="M25.12,9.02c0.1,0.12,0.2,0.2,0.19,0.26c-0.02,0.08-0.12,0.15-0.18,0.22c-0.06-0.07-0.16-0.12-0.18-0.2
		C24.94,9.24,25.03,9.16,25.12,9.02z"/>
	<path d="M10.12,9.3C9.98,9.4,9.9,9.5,9.84,9.49C9.77,9.48,9.67,9.37,9.67,9.29c0-0.05,0.11-0.16,0.18-0.17
		C9.91,9.12,9.99,9.22,10.12,9.3z"/>
	<path d="M7.44,18.6c-0.1-0.12-0.2-0.2-0.19-0.26c0-0.07,0.1-0.18,0.17-0.18c0.06,0,0.18,0.1,0.19,0.16
		C7.61,18.39,7.52,18.47,7.44,18.6z"/>
	<path d="M27.55,18.05c0.09,0.14,0.19,0.21,0.18,0.28c-0.01,0.07-0.11,0.13-0.18,0.2c-0.06-0.07-0.17-0.12-0.18-0.2
		C27.36,18.26,27.46,18.18,27.55,18.05z"/>
	<path d="M27.26,19.64c-0.08-0.13-0.17-0.22-0.16-0.29c0.01-0.06,0.12-0.16,0.19-0.16c0.06,0,0.17,0.11,0.17,0.18
		C27.46,19.45,27.36,19.52,27.26,19.64z"/>
	<path d="M27.17,20.39c-0.14,0.08-0.22,0.17-0.29,0.16c-0.07-0.01-0.17-0.12-0.17-0.19c0-0.06,0.12-0.16,0.19-0.16
		C26.97,20.19,27.04,20.29,27.17,20.39z"/>
	<path d="M10.33,23.84c0.13-0.09,0.21-0.19,0.27-0.18c0.07,0.01,0.13,0.11,0.2,0.17c-0.06,0.07-0.12,0.17-0.19,0.18
		C10.54,24.02,10.46,23.93,10.33,23.84z"/>
	<path d="M10.33,8.54c0.13-0.09,0.21-0.18,0.27-0.17c0.07,0.01,0.13,0.11,0.2,0.17c-0.06,0.07-0.12,0.17-0.19,0.18
		C10.54,8.73,10.46,8.64,10.33,8.54z"/>
	<path d="M19.9,6.13c-0.13,0.09-0.21,0.18-0.27,0.18c-0.07-0.01-0.17-0.11-0.18-0.18c0-0.06,0.11-0.17,0.18-0.17
		C19.7,5.94,19.77,6.04,19.9,6.13z"/>
	<path d="M14.58,6.4c-0.13,0.09-0.21,0.19-0.27,0.18c-0.07-0.01-0.13-0.11-0.2-0.18c0.06-0.06,0.12-0.17,0.19-0.18
		C14.37,6.22,14.45,6.31,14.58,6.4z"/>
	<path d="M7.98,19.36c-0.14,0.1-0.21,0.2-0.28,0.19c-0.07-0.01-0.13-0.12-0.19-0.18c0.06-0.06,0.12-0.16,0.19-0.17
		C7.77,19.19,7.85,19.28,7.98,19.36z"/>
	<path d="M7.69,13.28C7.6,13.15,7.51,13.07,7.52,13c0.01-0.07,0.12-0.12,0.18-0.19c0.06,0.07,0.16,0.13,0.17,0.2
		C7.89,13.08,7.78,13.16,7.69,13.28z"/>
	<path d="M7.25,17.54c-0.09-0.14-0.18-0.22-0.17-0.28c0.01-0.07,0.12-0.13,0.18-0.19c0.06,0.07,0.17,0.13,0.18,0.2
		C7.44,17.33,7.34,17.41,7.25,17.54z"/>
	<path d="M7.54,15.12c-0.13,0.08-0.21,0.17-0.28,0.16c-0.07-0.01-0.13-0.11-0.19-0.17c0.06-0.06,0.12-0.17,0.19-0.18
		C7.32,14.92,7.4,15.02,7.54,15.12z"/>
	<path d="M9.44,10.15c-0.13,0.09-0.21,0.18-0.28,0.17c-0.07-0.01-0.17-0.12-0.17-0.19c0-0.06,0.11-0.17,0.18-0.17
		C9.24,9.96,9.31,10.05,9.44,10.15z"/>
	<path d="M11.72,24.53c-0.14,0.08-0.22,0.17-0.28,0.16c-0.07-0.01-0.12-0.12-0.19-0.18c0.07-0.06,0.13-0.17,0.2-0.17
		C11.52,24.32,11.59,24.43,11.72,24.53z"/>
	<path d="M13.29,25.86c-0.08-0.13-0.17-0.22-0.16-0.28c0.01-0.07,0.13-0.17,0.18-0.16c0.07,0.01,0.17,0.12,0.17,0.18
		C13.49,25.67,13.38,25.74,13.29,25.86z"/>
	<path d="M13.28,7.06c-0.08-0.14-0.17-0.22-0.16-0.28c0.01-0.07,0.13-0.17,0.18-0.16c0.07,0.01,0.17,0.11,0.17,0.18
		C13.49,6.86,13.38,6.94,13.28,7.06z"/>
	<path d="M25.82,9.86c0.09,0.13,0.18,0.21,0.17,0.27c-0.01,0.07-0.11,0.13-0.17,0.2c-0.07-0.06-0.17-0.12-0.18-0.19
		C25.62,10.07,25.72,9.99,25.82,9.86z"/>
	<path d="M15.63,26.23c-0.13,0.1-0.2,0.21-0.26,0.2c-0.07,0-0.14-0.11-0.21-0.17c0.06-0.07,0.11-0.17,0.18-0.19
		C15.4,26.06,15.49,26.15,15.63,26.23z"/>
	<path d="M16.69,26.43c-0.14,0.09-0.22,0.18-0.28,0.17c-0.07-0.01-0.17-0.12-0.17-0.19c0-0.06,0.11-0.16,0.19-0.17
		C16.49,26.24,16.56,26.34,16.69,26.43z"/>
	<path d="M18.55,5.68c0.1,0.13,0.2,0.21,0.19,0.27c-0.01,0.07-0.11,0.14-0.18,0.2c-0.07-0.06-0.17-0.12-0.18-0.19
		C18.37,5.89,18.47,5.81,18.55,5.68z"/>
	<path d="M16.69,5.94c-0.13,0.1-0.21,0.2-0.27,0.19c-0.07-0.01-0.13-0.11-0.2-0.18c0.06-0.06,0.12-0.17,0.19-0.18
		C16.47,5.77,16.55,5.86,16.69,5.94z"/>
	<path d="M20.94,6.44c-0.14,0.07-0.23,0.15-0.29,0.14c-0.07-0.02-0.15-0.14-0.15-0.2c0-0.06,0.13-0.15,0.19-0.15
		C20.76,6.23,20.82,6.34,20.94,6.44z"/>
	<path d="M24.65,8.54c-0.14,0.09-0.22,0.19-0.28,0.18c-0.07-0.01-0.13-0.12-0.19-0.18c0.07-0.06,0.13-0.16,0.2-0.17
		C24.44,8.36,24.52,8.45,24.65,8.54z"/>
	<path d="M18.54,26.14c0.1,0.13,0.21,0.2,0.2,0.27c0,0.07-0.11,0.14-0.16,0.21c-0.07-0.06-0.17-0.11-0.19-0.18
		C18.38,26.37,18.46,26.28,18.54,26.14z"/>
	<path d="M27.55,13.02c-0.13,0.08-0.22,0.17-0.28,0.16C27.2,13.17,27.1,13.06,27.1,13c0-0.06,0.12-0.17,0.18-0.17
		C27.35,12.83,27.42,12.92,27.55,13.02z"/>
	<path d="M10.12,23.09c-0.14,0.08-0.22,0.17-0.29,0.16c-0.07-0.01-0.17-0.13-0.16-0.19c0.01-0.07,0.12-0.17,0.19-0.17
		C9.92,22.89,9.99,22.99,10.12,23.09z"/>
	<path d="M23.52,7.58c0.1,0.13,0.2,0.2,0.19,0.27c0,0.07-0.11,0.18-0.17,0.18c-0.06,0-0.18-0.1-0.19-0.16
		C23.35,7.8,23.44,7.72,23.52,7.58z"/>
	<path d="M26.09,22.24c-0.14,0.09-0.22,0.19-0.28,0.17c-0.07-0.01-0.13-0.12-0.19-0.19c0.07-0.06,0.13-0.16,0.2-0.17
		C25.88,22.05,25.96,22.15,26.09,22.24z"/>
	<path d="M9.14,22.52c-0.07-0.14-0.15-0.23-0.14-0.29c0.01-0.07,0.13-0.17,0.18-0.16c0.07,0.01,0.17,0.12,0.17,0.19
		C9.34,22.32,9.24,22.39,9.14,22.52z"/>
	<path d="M11.72,7.84c-0.13,0.1-0.2,0.21-0.27,0.2c-0.07,0-0.14-0.11-0.2-0.17c0.06-0.07,0.11-0.17,0.18-0.18
		C11.49,7.68,11.58,7.76,11.72,7.84z"/>
	<path d="M8.07,20.1c0.1,0.12,0.2,0.19,0.2,0.26c0,0.07-0.1,0.19-0.16,0.19c-0.07,0-0.18-0.09-0.19-0.16
		C7.89,20.32,7.98,20.24,8.07,20.1z"/>
	<path d="M27.53,13.77c0.1,0.13,0.2,0.2,0.2,0.27c0,0.07-0.11,0.13-0.17,0.2c-0.07-0.06-0.17-0.12-0.19-0.19
		C27.36,13.99,27.45,13.9,27.53,13.77z"/>
	<path d="M8.08,12.28C7.99,12.15,7.9,12.07,7.91,12c0.01-0.07,0.12-0.18,0.18-0.17c0.07,0.01,0.17,0.11,0.18,0.18
		C8.27,12.08,8.17,12.16,8.08,12.28z"/>
	<path d="M27.71,16.98c0.1,0.13,0.19,0.2,0.19,0.26c0,0.07-0.1,0.18-0.16,0.18c-0.07,0-0.18-0.09-0.19-0.16
		C27.53,17.21,27.62,17.12,27.71,16.98z"/>
	<path d="M21.94,6.8c-0.13,0.08-0.21,0.18-0.27,0.17c-0.07-0.01-0.17-0.11-0.18-0.18c0-0.06,0.11-0.17,0.18-0.17
		C21.74,6.61,21.81,6.71,21.94,6.8z"/>
	<path d="M15.62,6.1c-0.12,0.1-0.19,0.2-0.26,0.2c-0.07,0-0.14-0.1-0.2-0.16c0.06-0.07,0.11-0.18,0.18-0.19
		C15.4,5.93,15.48,6.02,15.62,6.1z"/>
	<path d="M7.69,14.05c-0.12,0.09-0.2,0.18-0.27,0.18c-0.07-0.01-0.18-0.11-0.18-0.17c0-0.06,0.1-0.18,0.17-0.18
		C7.49,13.86,7.57,13.96,7.69,14.05z"/>
	<path d="M22.65,22.4c-0.79,0-1.53-0.02-2.27,0.01c-0.53,0.01-0.54-0.28-0.46-0.69c0.02-0.09,0.2-0.21,0.3-0.21
		c1.14-0.02,2.27-0.01,3.41-0.01c0.21,0,0.33,0.13,0.32,0.33c-0.02,0.23-0.02,0.49-0.12,0.69c-0.57,1.1-1.17,2.19-1.76,3.29
		c-0.11,0.21-0.28,0.31-0.52,0.3c-0.16-0.01-0.31,0-0.47,0c-0.3-0.01-0.36-0.12-0.22-0.38c0.5-0.93,1.01-1.87,1.52-2.8
		C22.46,22.77,22.54,22.61,22.65,22.4z"/>
</g>
</svg>
