<?xml version="1.0" encoding="utf-8"?>
<!-- Generator: Adobe Illustrator 26.2.1, SVG Export Plug-In . SVG Version: 6.00 Build 0)  -->
<svg version="1.1" id="Layer_1" xmlns="http://www.w3.org/2000/svg" xmlns:xlink="http://www.w3.org/1999/xlink" x="0px" y="0px"
	 viewBox="0 0 18 18" style="enable-background:new 0 0 18 18;" xml:space="preserve">
<g>
	<path d="M2.2,3.6c0.94-0.03,1.75-0.35,2.41-1.01c0.66-0.66,0.98-1.47,1-2.41c2.27,0,4.53,0,6.78,0c0.22,2.07,1.35,3.21,3.44,3.44
		c0,0.03,0.01,0.08,0.01,0.13c0,1.64,0.01,3.27,0,4.91c-0.01,1.65-0.37,3.21-1.21,4.64c-0.73,1.23-1.72,2.19-2.9,2.97
		c-0.82,0.55-1.7,0.98-2.62,1.34C9.06,17.64,9,17.64,8.96,17.63c-1.5-0.59-2.89-1.36-4.07-2.48c-1.31-1.25-2.14-2.77-2.49-4.55
		C2.22,9.73,2.2,8.86,2.2,7.98c0-1.4,0-2.79,0-4.19C2.2,3.73,2.2,3.67,2.2,3.6z M2.66,4.03c0,0.05,0,0.08,0,0.11
		c0,1.43,0,2.86,0,4.3c0,0.64,0.04,1.28,0.15,1.91c0.28,1.54,0.93,2.9,2,4.06c1.15,1.25,2.58,2.09,4.14,2.72
		c0.05,0.02,0.13,0.01,0.18-0.01c1.19-0.49,2.31-1.1,3.3-1.94c1.89-1.6,2.85-3.65,2.94-6.1c0.05-1.35,0.01-2.69,0.02-4.04
		c0-0.33,0-0.66,0-0.99c-1.91-0.36-3.04-1.5-3.4-3.4c-1.98,0-3.95,0-5.94,0c-0.12,0.88-0.48,1.64-1.1,2.27
		C4.31,3.54,3.55,3.91,2.66,4.03z"/>
	<path d="M8.58,3.14c0-0.21,0-0.41,0-0.61C8.91,2.87,9.24,3.2,9.57,3.54c-0.3,0.3-0.64,0.64-0.98,0.98c0-0.2,0-0.41,0-0.65
		C7.18,4.06,6.05,4.69,5.34,5.9c-0.89,1.5-0.86,3.04,0.1,4.5c0.92,1.39,2.28,1.97,3.93,1.96c-0.09-0.99,0.27-1.75,1.17-2.15
		c0.79-0.35,1.53-0.18,2.18,0.4c1.61-1.87,1.25-5.6-2.11-6.88c0.12,0.04,0.24,0.08,0.35,0.13c1.64,0.72,2.6,1.96,2.82,3.75
		c0.14,1.13-0.15,2.17-0.8,3.1c-0.06,0.08-0.08,0.14-0.02,0.23c0.82,1.24,0.02,2.89-1.45,3.03c-0.83,0.08-1.62-0.37-1.97-1.13
		c-0.05-0.12-0.11-0.13-0.22-0.13c-0.99,0.06-1.92-0.15-2.77-0.65c-1.3-0.76-2.09-1.89-2.33-3.38c-0.4-2.48,1.26-4.81,3.68-5.4
		C8.11,3.22,8.33,3.19,8.58,3.14z M9.46,12c0,1.03,0.82,1.87,1.84,1.87c1.04,0,1.89-0.83,1.89-1.86c0-1.01-0.84-1.87-1.84-1.87
		C10.31,10.14,9.47,10.96,9.46,12z"/>
	<path d="M6.77,9.04c0.09,0,0.18,0,0.26,0c0.54,0,1.08,0,1.63,0c0.22,0,0.29,0.08,0.3,0.31c0,0.27-0.06,0.36-0.3,0.36
		c-0.83,0-1.66,0-2.49,0c-0.23,0-0.3-0.08-0.31-0.3c-0.01-0.34,0-0.67,0.23-0.94C6.31,8.21,6.61,8.1,6.91,8
		c0.25-0.08,0.52-0.14,0.77-0.22C7.76,7.76,7.84,7.73,7.9,7.69c0.14-0.08,0.2-0.19,0.18-0.36c-0.03-0.17-0.1-0.31-0.28-0.32
		C7.56,6.99,7.32,6.98,7.08,7C6.91,7.01,6.79,7.11,6.71,7.27c-0.08,0.15-0.2,0.23-0.38,0.21c-0.04,0-0.08,0-0.12,0
		c-0.29,0.03-0.39-0.17-0.33-0.4c0.07-0.3,0.29-0.49,0.55-0.61c0.19-0.08,0.39-0.15,0.6-0.16c0.45-0.04,0.91-0.05,1.35,0.12
		c0.35,0.14,0.53,0.4,0.58,0.77c0.05,0.41-0.03,0.76-0.38,1.02c-0.3,0.21-0.64,0.31-0.99,0.4C7.39,8.68,7.18,8.73,6.97,8.81
		C6.89,8.84,6.82,8.93,6.74,8.99C6.75,9.01,6.76,9.02,6.77,9.04z"/>
	<path d="M11.26,9.12c-0.13,0-0.25,0-0.36,0c-0.5,0-1,0-1.51,0c-0.22,0-0.27-0.07-0.29-0.29C9.08,8.52,9.19,8.29,9.39,8.07
		c0.46-0.5,0.91-1.02,1.36-1.54c0.13-0.15,0.28-0.21,0.47-0.21c0.21,0.01,0.42,0.01,0.63,0c0.23,0,0.31,0.07,0.31,0.29
		c0,0.55,0,1.09,0,1.64c0,0.05,0,0.11,0,0.14c0.16,0.05,0.33,0.06,0.43,0.15c0.07,0.06,0.06,0.23,0.04,0.35
		c-0.03,0.29-0.28,0.19-0.48,0.23c0,0.1,0,0.21,0,0.32c0,0.17-0.08,0.26-0.25,0.26c-0.14,0.01-0.28,0.01-0.42,0
		c-0.15-0.01-0.21-0.08-0.22-0.23c0-0.06,0-0.12,0-0.18C11.26,9.25,11.26,9.19,11.26,9.12z M11.25,7.08
		c-0.41,0.46-0.79,0.9-1.19,1.35c0.41,0,0.8,0,1.19,0C11.25,7.99,11.25,7.55,11.25,7.08z"/>
	<path d="M11.73,3.64c-0.26,0-0.36-0.18-0.26-0.36c0.09-0.15,0.18-0.31,0.27-0.46c0.07-0.13,0.17-0.15,0.31-0.07
		c0.13,0.07,0.16,0.17,0.09,0.29c-0.1,0.17-0.19,0.34-0.29,0.5C11.82,3.58,11.76,3.62,11.73,3.64z"/>
	<path d="M4.64,10.72c-0.01,0.02-0.04,0.08-0.08,0.1c-0.18,0.11-0.36,0.21-0.54,0.31c-0.11,0.06-0.21,0.02-0.28-0.1
		c-0.05-0.1-0.08-0.21,0.05-0.29c0.16-0.1,0.33-0.19,0.49-0.28C4.46,10.37,4.64,10.48,4.64,10.72z"/>
	<path d="M4.64,5.28c0,0.25-0.18,0.36-0.36,0.26C4.13,5.45,3.97,5.35,3.81,5.26c-0.12-0.07-0.14-0.18-0.06-0.3
		C3.82,4.83,3.92,4.8,4.03,4.87c0.17,0.1,0.35,0.19,0.51,0.3C4.59,5.2,4.62,5.26,4.64,5.28z"/>
	<path d="M14.35,10.9c-0.06,0.09-0.11,0.18-0.18,0.24c-0.08,0.08-0.15,0.01-0.23-0.03c-0.16-0.09-0.32-0.18-0.47-0.27
		c-0.11-0.06-0.13-0.17-0.06-0.29c0.08-0.13,0.17-0.17,0.29-0.1c0.17,0.1,0.35,0.19,0.51,0.3C14.26,10.78,14.29,10.83,14.35,10.9z"
		/>
	<path d="M14.31,5.14c-0.01,0.02-0.04,0.08-0.08,0.1c-0.18,0.11-0.36,0.21-0.54,0.32c-0.11,0.06-0.21,0.02-0.28-0.11
		c-0.05-0.1-0.08-0.21,0.05-0.28c0.16-0.09,0.33-0.19,0.49-0.28C14.13,4.78,14.31,4.89,14.31,5.14z"/>
	<path d="M6.29,3.64C6.26,3.62,6.2,3.59,6.17,3.54C6.07,3.37,5.97,3.19,5.87,3.01C5.81,2.91,5.85,2.8,5.98,2.74
		c0.1-0.05,0.21-0.08,0.28,0.05c0.09,0.16,0.19,0.33,0.28,0.49C6.65,3.45,6.53,3.64,6.29,3.64z"/>
	<path d="M6.11,13.34c-0.09-0.07-0.19-0.11-0.24-0.18c-0.03-0.05-0.01-0.15,0.02-0.21c0.08-0.16,0.18-0.32,0.27-0.48
		c0.07-0.12,0.17-0.14,0.3-0.06c0.12,0.07,0.16,0.17,0.09,0.28c-0.1,0.17-0.19,0.35-0.3,0.52C6.23,13.26,6.18,13.29,6.11,13.34z"/>
	<path d="M14.58,8.23c-0.09,0-0.19,0-0.28,0c-0.14,0-0.2-0.08-0.2-0.23c0-0.15,0.06-0.22,0.2-0.22c0.2,0,0.4,0,0.6,0
		c0.14,0,0.19,0.06,0.19,0.22c0,0.15-0.06,0.22-0.19,0.23c-0.05,0-0.11,0-0.16,0C14.68,8.23,14.63,8.23,14.58,8.23z"/>
	<path d="M3.43,7.78c0.1,0,0.2,0,0.3,0c0.14,0,0.19,0.07,0.19,0.22c0,0.15-0.06,0.22-0.19,0.23c-0.2,0-0.41,0-0.61,0
		C2.99,8.23,2.93,8.15,2.93,8c0-0.12,0.03-0.22,0.18-0.22C3.22,7.78,3.33,7.78,3.43,7.78z"/>
	<path d="M9.23,13.6c0,0.09,0,0.19,0,0.28c0,0.14-0.06,0.2-0.22,0.2c-0.16,0-0.23-0.06-0.23-0.2c0-0.2,0-0.4,0-0.6
		c0-0.13,0.07-0.19,0.22-0.19c0.15,0,0.22,0.06,0.23,0.19c0,0,0,0.01,0,0.01C9.23,13.4,9.23,13.5,9.23,13.6z"/>
	<path d="M9.14,2.89C9.03,2.77,8.9,2.66,8.82,2.52c-0.05-0.1-0.03-0.24-0.04-0.36c0-0.18,0.07-0.25,0.25-0.23
		c0.13,0.01,0.2,0.06,0.2,0.2c-0.01,0.19,0,0.39,0,0.58c0,0.05-0.02,0.1-0.04,0.15C9.18,2.87,9.16,2.88,9.14,2.89z"/>
	<path d="M14.26,5.72c-0.07,0.06-0.11,0.11-0.14,0.11c-0.04,0-0.1-0.05-0.1-0.09c-0.01-0.03,0.05-0.09,0.09-0.1
		C14.14,5.63,14.19,5.68,14.26,5.72z"/>
	<path d="M7.43,13.32c-0.07,0.05-0.12,0.1-0.15,0.1c-0.04-0.01-0.07-0.07-0.1-0.1c0.04-0.03,0.07-0.09,0.11-0.09
		C7.32,13.22,7.36,13.27,7.43,13.32z"/>
	<path d="M14.71,7.42c-0.07,0.04-0.12,0.09-0.15,0.09c-0.04-0.01-0.07-0.06-0.1-0.1c0.04-0.03,0.07-0.09,0.11-0.09
		C14.6,7.32,14.64,7.37,14.71,7.42z"/>
	<path d="M13.15,4.12c0.05,0.07,0.11,0.11,0.1,0.14c-0.01,0.04-0.06,0.08-0.1,0.12c-0.03-0.04-0.09-0.07-0.1-0.11
		C13.05,4.23,13.1,4.19,13.15,4.12z"/>
	<path d="M5.01,4.27c-0.07,0.05-0.12,0.11-0.15,0.1C4.82,4.36,4.77,4.3,4.76,4.26c0-0.03,0.06-0.09,0.1-0.09
		C4.9,4.17,4.94,4.22,5.01,4.27z"/>
	<path d="M3.56,9.32C3.5,9.25,3.45,9.21,3.45,9.17c0-0.04,0.06-0.1,0.09-0.1c0.03,0,0.1,0.05,0.1,0.09C3.65,9.2,3.6,9.24,3.56,9.32z
		"/>
	<path d="M14.47,9.01c0.05,0.07,0.1,0.12,0.1,0.15c-0.01,0.04-0.06,0.07-0.1,0.11c-0.03-0.04-0.09-0.07-0.1-0.11
		C14.37,9.13,14.42,9.09,14.47,9.01z"/>
	<path d="M14.31,9.88c-0.04-0.07-0.09-0.12-0.09-0.16c0-0.03,0.07-0.09,0.1-0.09c0.03,0,0.09,0.06,0.09,0.1
		C14.42,9.77,14.36,9.81,14.31,9.88z"/>
	<path d="M14.26,10.28c-0.07,0.04-0.12,0.09-0.16,0.09c-0.04-0.01-0.09-0.07-0.09-0.1c0-0.03,0.06-0.09,0.1-0.09
		C14.15,10.18,14.19,10.23,14.26,10.28z"/>
	<path d="M5.12,12.15c0.07-0.05,0.11-0.1,0.15-0.1c0.04,0.01,0.07,0.06,0.11,0.09c-0.03,0.04-0.07,0.09-0.1,0.1
		C5.24,12.26,5.2,12.2,5.12,12.15z"/>
	<path d="M5.12,3.85c0.07-0.05,0.11-0.1,0.15-0.09c0.04,0.01,0.07,0.06,0.11,0.09c-0.03,0.04-0.07,0.09-0.1,0.1
		C5.24,3.96,5.2,3.91,5.12,3.85z"/>
	<path d="M10.32,2.54c-0.07,0.05-0.11,0.1-0.15,0.1c-0.04,0-0.09-0.06-0.1-0.1c0-0.03,0.06-0.09,0.1-0.09
		C10.21,2.44,10.25,2.5,10.32,2.54z"/>
	<path d="M7.43,2.69c-0.07,0.05-0.11,0.1-0.15,0.1c-0.04-0.01-0.07-0.06-0.11-0.1c0.03-0.03,0.07-0.09,0.1-0.1
		C7.32,2.59,7.36,2.64,7.43,2.69z"/>
	<path d="M3.85,9.73C3.78,9.78,3.73,9.83,3.7,9.83c-0.04,0-0.07-0.06-0.11-0.1C3.63,9.7,3.66,9.64,3.7,9.64
		C3.73,9.63,3.78,9.68,3.85,9.73z"/>
	<path d="M3.69,6.43C3.64,6.35,3.6,6.31,3.6,6.27c0.01-0.04,0.06-0.07,0.1-0.1c0.03,0.04,0.09,0.07,0.09,0.11
		C3.8,6.32,3.74,6.36,3.69,6.43z"/>
	<path d="M3.45,8.74C3.4,8.66,3.35,8.62,3.36,8.59c0.01-0.04,0.06-0.07,0.1-0.1c0.03,0.04,0.09,0.07,0.1,0.11
		C3.56,8.62,3.5,8.67,3.45,8.74z"/>
	<path d="M3.61,7.42C3.54,7.47,3.49,7.52,3.46,7.51c-0.04,0-0.07-0.06-0.1-0.09c0.03-0.03,0.07-0.09,0.1-0.1
		C3.49,7.32,3.53,7.37,3.61,7.42z"/>
	<path d="M4.64,4.73c-0.07,0.05-0.12,0.1-0.15,0.09c-0.04,0-0.09-0.06-0.09-0.1c0-0.03,0.06-0.09,0.1-0.09
		C4.53,4.62,4.57,4.68,4.64,4.73z"/>
	<path d="M5.88,12.53c-0.07,0.04-0.12,0.09-0.15,0.09c-0.04-0.01-0.07-0.06-0.1-0.1c0.04-0.03,0.07-0.09,0.11-0.09
		C5.77,12.42,5.81,12.47,5.88,12.53z"/>
	<path d="M6.73,13.25c-0.04-0.07-0.09-0.12-0.09-0.15c0-0.04,0.07-0.09,0.1-0.09c0.04,0,0.09,0.06,0.09,0.1
		C6.84,13.15,6.78,13.19,6.73,13.25z"/>
	<path d="M6.73,3.05C6.68,2.98,6.64,2.94,6.64,2.9c0.01-0.04,0.07-0.09,0.1-0.09c0.04,0.01,0.09,0.06,0.09,0.1
		C6.84,2.95,6.78,2.98,6.73,3.05z"/>
	<path d="M13.53,4.57c0.05,0.07,0.1,0.11,0.09,0.15c-0.01,0.04-0.06,0.07-0.09,0.11c-0.04-0.03-0.09-0.07-0.1-0.1
		C13.42,4.69,13.48,4.64,13.53,4.57z"/>
	<path d="M8,13.45c-0.07,0.06-0.11,0.11-0.14,0.11c-0.04,0-0.07-0.06-0.11-0.09c0.03-0.04,0.06-0.09,0.1-0.1
		C7.88,13.36,7.92,13.41,8,13.45z"/>
	<path d="M8.58,13.56c-0.07,0.05-0.12,0.1-0.15,0.09c-0.04-0.01-0.09-0.07-0.09-0.1c0-0.03,0.06-0.09,0.1-0.09
		C8.47,13.46,8.51,13.51,8.58,13.56z"/>
	<path d="M9.59,2.3c0.05,0.07,0.11,0.11,0.1,0.15c0,0.04-0.06,0.07-0.1,0.11c-0.04-0.03-0.09-0.07-0.1-0.1
		C9.49,2.42,9.54,2.37,9.59,2.3z"/>
	<path d="M8.58,2.45C8.5,2.5,8.46,2.55,8.43,2.55c-0.04,0-0.07-0.06-0.11-0.1c0.03-0.03,0.07-0.09,0.1-0.1
		C8.46,2.35,8.5,2.4,8.58,2.45z"/>
	<path d="M10.88,2.71c-0.07,0.04-0.12,0.08-0.16,0.08c-0.04-0.01-0.08-0.07-0.08-0.11c0-0.03,0.07-0.08,0.11-0.08
		C10.78,2.6,10.82,2.66,10.88,2.71z"/>
	<path d="M12.89,3.85c-0.07,0.05-0.12,0.1-0.15,0.1c-0.04-0.01-0.07-0.06-0.11-0.1c0.04-0.03,0.07-0.09,0.11-0.09
		C12.78,3.75,12.82,3.81,12.89,3.85z"/>
	<path d="M9.58,13.4c0.06,0.07,0.11,0.11,0.11,0.14c0,0.04-0.06,0.07-0.09,0.11c-0.04-0.03-0.09-0.06-0.1-0.1
		C9.49,13.53,9.54,13.48,9.58,13.4z"/>
	<path d="M14.47,6.29c-0.07,0.04-0.12,0.09-0.15,0.09c-0.04-0.01-0.09-0.07-0.09-0.1c0-0.03,0.06-0.09,0.1-0.09
		C14.36,6.18,14.4,6.23,14.47,6.29z"/>
	<path d="M5.01,11.75c-0.07,0.04-0.12,0.09-0.16,0.08c-0.04-0.01-0.09-0.07-0.09-0.1c0-0.04,0.06-0.09,0.1-0.09
		C4.9,11.64,4.94,11.7,5.01,11.75z"/>
	<path d="M12.28,3.33c0.05,0.07,0.11,0.11,0.11,0.15c0,0.04-0.06,0.1-0.09,0.1c-0.03,0-0.1-0.05-0.1-0.09
		C12.19,3.45,12.24,3.41,12.28,3.33z"/>
	<path d="M13.68,11.29c-0.08,0.05-0.12,0.1-0.15,0.09c-0.04-0.01-0.07-0.07-0.1-0.1c0.04-0.03,0.07-0.09,0.11-0.09
		C13.56,11.19,13.61,11.24,13.68,11.29z"/>
	<path d="M4.48,11.44c-0.04-0.08-0.08-0.12-0.08-0.16c0.01-0.04,0.07-0.09,0.1-0.09c0.04,0.01,0.09,0.07,0.09,0.1
		C4.59,11.33,4.53,11.37,4.48,11.44z"/>
	<path d="M5.88,3.47C5.81,3.53,5.77,3.59,5.73,3.58c-0.04,0-0.07-0.06-0.11-0.09c0.03-0.04,0.06-0.09,0.1-0.1
		C5.76,3.39,5.8,3.43,5.88,3.47z"/>
	<path d="M3.9,10.13C3.95,10.19,4,10.23,4,10.27c0,0.04-0.05,0.1-0.09,0.1c-0.04,0-0.1-0.05-0.1-0.09C3.8,10.25,3.85,10.2,3.9,10.13
		z"/>
	<path d="M14.46,6.69c0.05,0.07,0.11,0.11,0.11,0.14c0,0.04-0.06,0.07-0.09,0.11c-0.04-0.03-0.09-0.06-0.1-0.1
		C14.37,6.81,14.42,6.77,14.46,6.69z"/>
	<path d="M3.9,5.88c-0.05-0.07-0.1-0.11-0.09-0.15c0-0.04,0.07-0.09,0.1-0.09C3.94,5.65,4,5.7,4,5.74C4,5.78,3.95,5.82,3.9,5.88z"/>
	<path d="M14.55,8.44c0.05,0.07,0.11,0.11,0.1,0.14c0,0.04-0.06,0.1-0.09,0.1c-0.04,0-0.1-0.05-0.1-0.09
		C14.46,8.56,14.51,8.51,14.55,8.44z"/>
	<path d="M11.42,2.91C11.36,2.95,11.31,3,11.28,3c-0.04-0.01-0.09-0.06-0.1-0.1c0-0.03,0.06-0.09,0.1-0.09
		C11.32,2.81,11.36,2.86,11.42,2.91z"/>
	<path d="M8,2.53C7.93,2.58,7.89,2.64,7.85,2.64c-0.04,0-0.07-0.06-0.11-0.09c0.03-0.04,0.06-0.1,0.1-0.1
		C7.87,2.44,7.92,2.49,8,2.53z"/>
	<path d="M3.69,6.84c-0.07,0.05-0.11,0.1-0.15,0.1c-0.04,0-0.1-0.06-0.1-0.09c0-0.03,0.06-0.1,0.09-0.1
		C3.58,6.74,3.62,6.79,3.69,6.84z"/>
	<path d="M11.81,11.38c-0.43,0-0.83-0.01-1.23,0c-0.29,0.01-0.29-0.15-0.25-0.37c0.01-0.05,0.11-0.11,0.16-0.12
		c0.62-0.01,1.23-0.01,1.85,0c0.12,0,0.18,0.07,0.17,0.18c-0.01,0.13-0.01,0.27-0.07,0.37c-0.31,0.6-0.64,1.19-0.96,1.78
		c-0.06,0.11-0.15,0.17-0.28,0.16c-0.08,0-0.17,0-0.25,0c-0.16,0-0.2-0.06-0.12-0.21c0.27-0.51,0.55-1.01,0.82-1.52
		C11.7,11.57,11.75,11.49,11.81,11.38z"/>
</g>
</svg>
