<?xml version="1.0" encoding="utf-8"?>
<!-- Generator: Adobe Illustrator 26.2.1, SVG Export Plug-In . SVG Version: 6.00 Build 0)  -->
<svg version="1.1" id="Layer_1" xmlns="http://www.w3.org/2000/svg" xmlns:xlink="http://www.w3.org/1999/xlink" x="0px" y="0px"
	 viewBox="0 0 48 48" style="enable-background:new 0 0 48 48;" xml:space="preserve" height="80" width="80">
<style type="text/css">
	.st0{display:none;}
	.st1{display:inline;}
	.st2{stroke:#C4A674;stroke-width:0.2;stroke-miterlimit:10;}
	.st3{fill:#FDFDFD;}
</style>
<g id="_x32_47_Security" class="st0">
	<path class="st1" d="M7.22,11.53c2.27-0.06,4.22-0.84,5.81-2.43c1.59-1.59,2.38-3.54,2.42-5.81c5.49,0,10.94,0,16.39,0
		c0.53,4.99,3.27,7.76,8.3,8.31c0,0.08,0.01,0.19,0.01,0.31c0,3.95,0.02,7.9,0,11.85c-0.02,3.98-0.89,7.75-2.93,11.21
		c-1.75,2.96-4.16,5.29-7,7.18c-1.98,1.32-4.11,2.37-6.32,3.24c-0.11,0.04-0.27,0.06-0.37,0.02c-3.62-1.43-6.98-3.29-9.82-6
		c-3.16-3.03-5.16-6.69-6.02-10.99c-0.42-2.08-0.48-4.19-0.47-6.31c0.01-3.37,0-6.75,0.01-10.12C7.22,11.86,7.22,11.71,7.22,11.53z
		 M8.32,12.57c0,0.11,0,0.19,0,0.27c0,3.46,0.01,6.92,0,10.38c0,1.55,0.1,3.09,0.37,4.62c0.67,3.73,2.25,7.01,4.82,9.8
		c2.78,3.02,6.22,5.05,9.99,6.57c0.12,0.05,0.31,0.03,0.44-0.02c2.88-1.17,5.59-2.66,7.97-4.68c4.55-3.86,6.88-8.82,7.11-14.74
		c0.12-3.25,0.03-6.51,0.04-9.76c0-0.8,0-1.61,0-2.39c-4.62-0.88-7.34-3.62-8.22-8.2c-4.77,0-9.55,0-14.35,0
		c-0.28,2.13-1.16,3.96-2.67,5.47C12.31,11.4,10.47,12.28,8.32,12.57z"/>
	<path class="st1" d="M22.61,10.42c0-0.5,0-0.99,0-1.48c0.81,0.82,1.61,1.64,2.4,2.44c-0.73,0.73-1.55,1.54-2.37,2.36
		c0-0.49,0-1,0-1.57c-3.4,0.47-6.12,1.99-7.85,4.92c-2.15,3.63-2.07,7.35,0.25,10.87c2.22,3.36,5.51,4.76,9.49,4.73
		c-0.21-2.4,0.65-4.22,2.83-5.19c1.91-0.86,3.7-0.44,5.26,0.96c3.9-4.52,3.02-13.53-5.09-16.63c0.29,0.1,0.58,0.2,0.86,0.32
		c3.97,1.74,6.29,4.74,6.82,9.05c0.33,2.72-0.36,5.24-1.94,7.49c-0.14,0.19-0.19,0.33-0.04,0.56c1.98,2.99,0.06,6.98-3.51,7.33
		c-2.01,0.2-3.92-0.89-4.76-2.73c-0.13-0.28-0.28-0.32-0.54-0.31c-2.39,0.14-4.63-0.37-6.69-1.58c-3.14-1.84-5.04-4.57-5.62-8.16
		c-0.97-6,3.04-11.62,8.88-13.04C21.5,10.63,22.03,10.54,22.61,10.42z M24.75,31.82c-0.01,2.49,1.99,4.52,4.45,4.53
		c2.52,0.01,4.56-2,4.57-4.5c0.01-2.43-2.03-4.51-4.45-4.51C26.79,27.33,24.76,29.32,24.75,31.82z"/>
	<path class="st1" d="M18.25,24.67c0.21,0,0.42,0,0.64,0c1.31,0,2.62,0,3.93,0c0.53,0,0.71,0.2,0.72,0.76
		c0.01,0.66-0.16,0.87-0.72,0.87c-2.01,0-4.01,0-6.02,0c-0.56,0-0.73-0.19-0.74-0.73c-0.02-0.81,0-1.62,0.56-2.28
		c0.52-0.61,1.24-0.89,1.97-1.12c0.61-0.2,1.25-0.34,1.87-0.52c0.18-0.05,0.36-0.13,0.53-0.23c0.33-0.19,0.48-0.47,0.42-0.87
		c-0.06-0.41-0.24-0.74-0.67-0.78c-0.58-0.05-1.17-0.06-1.75-0.03c-0.4,0.03-0.7,0.28-0.89,0.66c-0.18,0.37-0.49,0.54-0.91,0.52
		c-0.1-0.01-0.19-0.01-0.29,0c-0.71,0.08-0.94-0.42-0.8-0.97c0.18-0.73,0.69-1.18,1.33-1.46c0.45-0.2,0.95-0.36,1.44-0.4
		c1.1-0.09,2.21-0.13,3.27,0.3c0.84,0.34,1.29,0.97,1.4,1.85c0.13,0.98-0.08,1.85-0.92,2.46c-0.71,0.51-1.54,0.75-2.38,0.97
		c-0.51,0.14-1.02,0.27-1.51,0.46c-0.21,0.08-0.37,0.28-0.55,0.43C18.21,24.59,18.23,24.63,18.25,24.67z"/>
	<path class="st1" d="M29.1,24.86c-0.32,0-0.6,0-0.87,0c-1.21,0-2.43,0-3.64,0c-0.53,0-0.64-0.18-0.69-0.69
		c-0.07-0.74,0.2-1.3,0.69-1.84c1.12-1.22,2.2-2.47,3.28-3.73c0.31-0.36,0.67-0.52,1.13-0.5c0.5,0.02,1.01,0.01,1.51,0.01
		c0.55-0.01,0.74,0.16,0.74,0.71c0,1.32,0,2.64,0,3.96c0,0.13,0,0.26,0,0.34c0.38,0.12,0.8,0.15,1.05,0.37
		c0.16,0.14,0.14,0.56,0.11,0.85c-0.08,0.71-0.69,0.46-1.16,0.55c0,0.25,0,0.51,0,0.77c-0.01,0.42-0.2,0.62-0.61,0.64
		c-0.34,0.01-0.67,0.01-1.01,0c-0.35-0.02-0.52-0.2-0.53-0.55c-0.01-0.14,0-0.29,0-0.43C29.1,25.18,29.1,25.05,29.1,24.86z
		 M29.08,19.95c-0.98,1.11-1.9,2.16-2.87,3.26c1,0,1.93,0,2.87,0C29.08,22.14,29.08,21.09,29.08,19.95z"/>
	<path class="st1" d="M30.24,11.63c-0.63-0.01-0.87-0.43-0.62-0.87c0.21-0.37,0.43-0.74,0.65-1.12c0.18-0.31,0.42-0.36,0.75-0.18
		c0.31,0.18,0.38,0.41,0.21,0.71c-0.23,0.4-0.46,0.81-0.7,1.21C30.44,11.5,30.29,11.58,30.24,11.63z"/>
	<path class="st1" d="M13.11,28.75c-0.03,0.04-0.09,0.19-0.19,0.25c-0.43,0.27-0.87,0.51-1.31,0.76c-0.26,0.15-0.51,0.06-0.67-0.25
		c-0.13-0.25-0.18-0.51,0.12-0.69c0.39-0.23,0.79-0.46,1.18-0.68C12.67,27.88,13.11,28.15,13.11,28.75z"/>
	<path class="st1" d="M13.11,15.59c0,0.6-0.43,0.87-0.86,0.63c-0.39-0.22-0.77-0.44-1.15-0.67c-0.28-0.17-0.33-0.43-0.15-0.73
		c0.18-0.3,0.41-0.38,0.69-0.22c0.42,0.24,0.84,0.47,1.24,0.73C13,15.39,13.07,15.53,13.11,15.59z"/>
	<path class="st1" d="M36.56,29.18c-0.16,0.22-0.27,0.43-0.43,0.59c-0.19,0.19-0.37,0.03-0.55-0.07c-0.38-0.22-0.77-0.44-1.15-0.66
		c-0.26-0.15-0.31-0.42-0.14-0.7c0.19-0.33,0.41-0.41,0.7-0.24c0.42,0.24,0.83,0.47,1.24,0.72C36.35,28.87,36.42,29.01,36.56,29.18z
		"/>
	<path class="st1" d="M36.47,15.27c-0.03,0.04-0.1,0.18-0.2,0.25c-0.43,0.27-0.86,0.52-1.3,0.76c-0.26,0.15-0.5,0.06-0.67-0.27
		c-0.12-0.24-0.2-0.5,0.12-0.68c0.4-0.23,0.79-0.46,1.18-0.68C36.03,14.4,36.47,14.66,36.47,15.27z"/>
	<path class="st1" d="M17.08,11.63c-0.05-0.04-0.2-0.11-0.27-0.23c-0.26-0.42-0.5-0.84-0.74-1.27c-0.14-0.26-0.05-0.51,0.27-0.67
		c0.25-0.12,0.5-0.2,0.68,0.12c0.23,0.39,0.46,0.79,0.69,1.18C17.95,11.18,17.68,11.63,17.08,11.63z"/>
	<path class="st1" d="M16.66,35.07c-0.23-0.16-0.46-0.26-0.58-0.44c-0.07-0.11-0.02-0.36,0.06-0.51c0.2-0.4,0.43-0.78,0.66-1.16
		c0.17-0.29,0.42-0.33,0.73-0.15c0.3,0.17,0.38,0.41,0.23,0.68c-0.23,0.42-0.47,0.84-0.72,1.24C16.96,34.86,16.82,34.94,16.66,35.07
		z"/>
	<path class="st1" d="M37.12,22.72c-0.23,0-0.46,0-0.68,0c-0.34-0.01-0.49-0.19-0.49-0.56c0-0.36,0.15-0.52,0.48-0.53
		c0.48,0,0.96-0.01,1.44,0c0.34,0,0.46,0.16,0.47,0.53c0,0.37-0.14,0.54-0.46,0.55c-0.13,0-0.26,0-0.4,0
		C37.36,22.72,37.24,22.72,37.12,22.72z"/>
	<path class="st1" d="M10.18,21.63c0.24,0,0.48,0,0.72,0c0.33,0.01,0.46,0.17,0.46,0.54c0,0.37-0.14,0.54-0.46,0.55
		c-0.49,0.01-0.98,0.01-1.48,0c-0.31-0.01-0.45-0.19-0.44-0.56c0.01-0.29,0.08-0.53,0.44-0.52C9.68,21.63,9.93,21.63,10.18,21.63z"
		/>
	<path class="st1" d="M24.2,35.68c0,0.23,0,0.46,0,0.68c-0.01,0.34-0.15,0.48-0.52,0.48c-0.38,0.01-0.56-0.14-0.56-0.48
		c-0.01-0.48-0.01-0.96,0-1.44c0-0.32,0.18-0.47,0.54-0.47c0.37,0,0.53,0.14,0.54,0.46c0,0.01,0,0.02,0,0.04
		C24.2,35.2,24.2,35.44,24.2,35.68z"/>
	<path class="st1" d="M23.98,9.81c-0.26-0.29-0.59-0.55-0.77-0.88c-0.13-0.23-0.08-0.57-0.09-0.87c-0.01-0.44,0.17-0.59,0.61-0.56
		c0.31,0.02,0.49,0.15,0.47,0.49c-0.02,0.47,0,0.93-0.01,1.4c0,0.12-0.06,0.25-0.09,0.37C24.07,9.78,24.02,9.8,23.98,9.81z"/>
	<path class="st1" d="M36.34,16.65c-0.17,0.14-0.26,0.27-0.35,0.27c-0.09,0-0.23-0.13-0.25-0.22c-0.01-0.07,0.12-0.22,0.21-0.24
		C36.05,16.45,36.16,16.56,36.34,16.65z"/>
	<path class="st1" d="M19.85,35.01c-0.18,0.12-0.28,0.25-0.36,0.23c-0.09-0.02-0.17-0.16-0.25-0.24c0.09-0.08,0.17-0.21,0.26-0.22
		C19.58,34.77,19.68,34.89,19.85,35.01z"/>
	<path class="st1" d="M37.43,20.77c-0.18,0.11-0.28,0.22-0.37,0.21c-0.09-0.02-0.17-0.15-0.25-0.23c0.09-0.08,0.17-0.22,0.26-0.23
		C37.16,20.51,37.26,20.64,37.43,20.77z"/>
	<path class="st1" d="M33.66,12.79c0.13,0.16,0.27,0.27,0.25,0.34c-0.02,0.11-0.15,0.19-0.24,0.29c-0.08-0.09-0.22-0.16-0.23-0.26
		C33.43,13.07,33.55,12.96,33.66,12.79z"/>
	<path class="st1" d="M14,13.15c-0.17,0.12-0.28,0.25-0.36,0.24c-0.09-0.01-0.22-0.16-0.23-0.25c-0.01-0.07,0.15-0.21,0.24-0.22
		C13.73,12.91,13.83,13.04,14,13.15z"/>
	<path class="st1" d="M10.49,25.34c-0.13-0.16-0.26-0.26-0.25-0.35c0-0.09,0.14-0.24,0.22-0.24c0.08,0,0.23,0.13,0.25,0.22
		C10.71,25.06,10.59,25.17,10.49,25.34z"/>
	<path class="st1" d="M36.85,24.61c0.12,0.18,0.24,0.28,0.23,0.37c-0.01,0.09-0.15,0.17-0.23,0.26c-0.08-0.09-0.22-0.16-0.24-0.26
		C36.6,24.89,36.73,24.79,36.85,24.61z"/>
	<path class="st1" d="M36.47,26.71c-0.11-0.18-0.22-0.28-0.21-0.38c0.01-0.08,0.16-0.21,0.24-0.21c0.08,0.01,0.22,0.15,0.22,0.23
		C36.72,26.45,36.59,26.54,36.47,26.71z"/>
	<path class="st1" d="M36.34,27.68c-0.18,0.11-0.29,0.22-0.37,0.21c-0.09-0.02-0.22-0.16-0.22-0.25c0-0.08,0.15-0.21,0.24-0.22
		C36.08,27.43,36.18,27.56,36.34,27.68z"/>
	<path class="st1" d="M14.27,32.2c0.17-0.12,0.28-0.25,0.36-0.24c0.1,0.01,0.17,0.15,0.26,0.23c-0.08,0.09-0.16,0.22-0.25,0.24
		C14.55,32.45,14.45,32.32,14.27,32.2z"/>
	<path class="st1" d="M14.27,12.15c0.17-0.12,0.27-0.24,0.36-0.23c0.1,0.01,0.18,0.15,0.26,0.23c-0.08,0.09-0.16,0.23-0.25,0.24
		C14.55,12.4,14.45,12.28,14.27,12.15z"/>
	<path class="st1" d="M26.82,8.99c-0.17,0.12-0.27,0.24-0.36,0.23c-0.09-0.01-0.23-0.15-0.23-0.24c0-0.08,0.14-0.22,0.23-0.23
		C26.55,8.75,26.65,8.87,26.82,8.99z"/>
	<path class="st1" d="M19.85,9.35c-0.17,0.12-0.27,0.25-0.36,0.24c-0.09-0.01-0.17-0.15-0.26-0.23c0.08-0.08,0.16-0.22,0.25-0.23
		C19.57,9.11,19.67,9.23,19.85,9.35z"/>
	<path class="st1" d="M11.2,26.33c-0.18,0.13-0.28,0.26-0.36,0.25c-0.09-0.01-0.17-0.15-0.25-0.24c0.08-0.08,0.16-0.21,0.25-0.22
		C10.92,26.11,11.02,26.23,11.2,26.33z"/>
	<path class="st1" d="M10.81,18.36c-0.11-0.18-0.23-0.28-0.22-0.37c0.01-0.09,0.15-0.16,0.24-0.24c0.08,0.09,0.22,0.17,0.23,0.27
		C11.07,18.1,10.94,18.2,10.81,18.36z"/>
	<path class="st1" d="M10.24,23.95c-0.11-0.18-0.23-0.28-0.22-0.37c0.02-0.09,0.15-0.17,0.24-0.25c0.08,0.09,0.22,0.16,0.23,0.26
		C10.49,23.67,10.36,23.78,10.24,23.95z"/>
	<path class="st1" d="M10.61,20.77c-0.17,0.11-0.28,0.23-0.36,0.21c-0.09-0.01-0.17-0.14-0.25-0.22c0.08-0.08,0.16-0.23,0.25-0.24
		C10.33,20.52,10.44,20.65,10.61,20.77z"/>
	<path class="st1" d="M13.11,14.26c-0.17,0.12-0.28,0.24-0.37,0.23c-0.09-0.01-0.22-0.16-0.22-0.24c0-0.08,0.15-0.22,0.23-0.22
		C12.85,14.01,12.94,14.14,13.11,14.26z"/>
	<path class="st1" d="M16.09,33.11c-0.18,0.11-0.29,0.22-0.37,0.21c-0.09-0.02-0.16-0.16-0.24-0.24c0.09-0.08,0.17-0.22,0.26-0.23
		C15.83,32.84,15.93,32.97,16.09,33.11z"/>
	<path class="st1" d="M18.15,34.86c-0.1-0.17-0.22-0.28-0.21-0.37c0.01-0.09,0.16-0.22,0.24-0.21c0.09,0.01,0.22,0.15,0.22,0.24
		C18.41,34.6,18.28,34.7,18.15,34.86z"/>
	<path class="st1" d="M18.15,10.22c-0.1-0.18-0.22-0.29-0.2-0.37c0.01-0.09,0.16-0.23,0.24-0.22c0.09,0.01,0.22,0.15,0.23,0.24
		C18.41,9.96,18.28,10.05,18.15,10.22z"/>
	<path class="st1" d="M34.57,13.88c0.11,0.17,0.23,0.27,0.22,0.36c-0.01,0.1-0.15,0.17-0.23,0.26c-0.09-0.08-0.23-0.16-0.24-0.25
		C34.31,14.16,34.45,14.06,34.57,13.88z"/>
	<path class="st1" d="M21.22,35.34c-0.17,0.14-0.26,0.27-0.35,0.26c-0.09-0.01-0.18-0.14-0.27-0.22c0.08-0.09,0.15-0.23,0.24-0.25
		C20.92,35.12,21.03,35.23,21.22,35.34z"/>
	<path class="st1" d="M22.61,35.6c-0.18,0.11-0.29,0.24-0.37,0.22c-0.09-0.02-0.22-0.16-0.22-0.25c0-0.08,0.15-0.21,0.24-0.22
		C22.35,35.35,22.44,35.48,22.61,35.6z"/>
	<path class="st1" d="M25.05,8.4c0.13,0.17,0.26,0.27,0.25,0.35c-0.01,0.1-0.15,0.18-0.23,0.26c-0.09-0.08-0.22-0.16-0.24-0.25
		C24.82,8.68,24.94,8.58,25.05,8.4z"/>
	<path class="st1" d="M22.61,8.75C22.44,8.88,22.34,9.01,22.25,9c-0.1-0.01-0.18-0.15-0.26-0.23c0.08-0.08,0.16-0.22,0.25-0.24
		C22.33,8.52,22.43,8.64,22.61,8.75z"/>
	<path class="st1" d="M28.18,9.4c-0.18,0.09-0.3,0.2-0.39,0.18c-0.09-0.02-0.2-0.18-0.19-0.27c0.01-0.08,0.17-0.2,0.26-0.19
		C27.95,9.13,28.03,9.26,28.18,9.4z"/>
	<path class="st1" d="M33.04,12.15c-0.18,0.12-0.28,0.25-0.37,0.24c-0.1-0.02-0.17-0.16-0.25-0.24c0.09-0.08,0.17-0.21,0.26-0.23
		C32.77,11.91,32.87,12.03,33.04,12.15z"/>
	<path class="st1" d="M25.04,35.22c0.14,0.17,0.27,0.26,0.27,0.35c0,0.09-0.14,0.18-0.22,0.27c-0.09-0.08-0.23-0.14-0.24-0.24
		C24.83,35.52,24.94,35.41,25.04,35.22z"/>
	<path class="st1" d="M36.85,18.02c-0.18,0.11-0.28,0.23-0.37,0.21c-0.09-0.01-0.22-0.16-0.22-0.24c0-0.08,0.15-0.22,0.24-0.22
		C36.58,17.77,36.68,17.9,36.85,18.02z"/>
	<path class="st1" d="M14,31.22c-0.18,0.1-0.29,0.22-0.38,0.2c-0.09-0.02-0.22-0.17-0.21-0.25c0.01-0.09,0.16-0.22,0.25-0.22
		C13.74,30.96,13.84,31.09,14,31.22z"/>
	<path class="st1" d="M31.56,10.89c0.13,0.17,0.26,0.26,0.25,0.35c0,0.09-0.14,0.24-0.22,0.24c-0.08,0-0.23-0.13-0.25-0.22
		C31.34,11.18,31.46,11.07,31.56,10.89z"/>
	<path class="st1" d="M34.93,30.11c-0.18,0.12-0.29,0.24-0.37,0.23c-0.09-0.02-0.17-0.16-0.25-0.25c0.09-0.08,0.17-0.21,0.26-0.22
		C34.66,29.86,34.76,29.99,34.93,30.11z"/>
	<path class="st1" d="M12.71,30.47c-0.1-0.18-0.2-0.3-0.19-0.38c0.02-0.09,0.17-0.22,0.24-0.21c0.09,0.01,0.22,0.16,0.22,0.25
		C12.98,30.21,12.85,30.3,12.71,30.47z"/>
	<path class="st1" d="M16.09,11.23c-0.17,0.14-0.26,0.27-0.35,0.27c-0.09,0-0.18-0.14-0.27-0.22c0.08-0.09,0.14-0.23,0.23-0.24
		C15.8,11.02,15.91,11.13,16.09,11.23z"/>
	<path class="st1" d="M11.31,27.3c0.13,0.16,0.26,0.25,0.26,0.34c0,0.09-0.13,0.24-0.21,0.25c-0.09,0-0.23-0.12-0.25-0.21
		C11.08,27.59,11.2,27.48,11.31,27.3z"/>
	<path class="st1" d="M36.83,19.01c0.13,0.17,0.26,0.26,0.26,0.35c-0.01,0.09-0.14,0.17-0.22,0.26c-0.09-0.08-0.23-0.15-0.24-0.24
		C36.6,19.29,36.72,19.18,36.83,19.01z"/>
	<path class="st1" d="M11.32,17.05c-0.11-0.17-0.23-0.27-0.22-0.36c0.01-0.09,0.16-0.23,0.23-0.22c0.09,0.01,0.22,0.15,0.23,0.24
		C11.57,16.79,11.44,16.89,11.32,17.05z"/>
	<path class="st1" d="M37.05,23.22c0.13,0.17,0.25,0.26,0.25,0.35c0,0.09-0.14,0.24-0.22,0.24c-0.09,0-0.24-0.12-0.25-0.21
		C36.82,23.51,36.94,23.4,37.05,23.22z"/>
	<path class="st1" d="M29.49,9.87c-0.17,0.11-0.27,0.23-0.36,0.22c-0.09-0.01-0.23-0.15-0.23-0.24c0-0.08,0.15-0.22,0.23-0.23
		C29.23,9.62,29.33,9.75,29.49,9.87z"/>
	<path class="st1" d="M21.21,8.95c-0.16,0.13-0.25,0.27-0.34,0.26c-0.09,0-0.18-0.14-0.27-0.21c0.08-0.09,0.14-0.23,0.23-0.25
		C20.92,8.74,21.03,8.85,21.21,8.95z"/>
	<path class="st1" d="M10.82,19.37c-0.16,0.11-0.26,0.24-0.35,0.23c-0.09-0.01-0.23-0.15-0.24-0.23c0-0.08,0.14-0.23,0.22-0.24
		C10.55,19.13,10.65,19.25,10.82,19.37z"/>
	<path class="st1" d="M30.42,30.32c-1.04,0-2.01-0.02-2.98,0.01c-0.7,0.02-0.71-0.37-0.61-0.9c0.02-0.12,0.26-0.28,0.39-0.28
		c1.49-0.02,2.98-0.01,4.47-0.01c0.28,0,0.44,0.17,0.42,0.43c-0.02,0.31-0.03,0.64-0.16,0.9c-0.75,1.45-1.54,2.88-2.31,4.31
		c-0.15,0.27-0.37,0.4-0.68,0.39c-0.2-0.01-0.41,0-0.61,0c-0.39-0.01-0.47-0.15-0.29-0.5c0.66-1.22,1.32-2.45,1.99-3.67
		C30.17,30.8,30.28,30.59,30.42,30.32z"/>
</g>
<g id="Per_Friendly" class="st0">
	<path class="st1" d="M47.65,19.44c-0.33,1.04-0.57,2.13-1.03,3.12c-0.62,1.34-1.63,2.39-3.06,2.9c-2.13,0.76-4.13-0.09-5.11-2.12
		c-0.81-1.67-0.84-3.41-0.35-5.16c0.42-1.51,1.15-2.83,2.4-3.84c2.44-1.98,5.58-1.15,6.69,1.81c0.21,0.55,0.31,1.15,0.46,1.72
		C47.65,18.39,47.65,18.91,47.65,19.44z M46.12,18.48c-0.07-0.38-0.13-1-0.3-1.58c-0.66-2.17-2.81-2.75-4.49-1.24
		c-1.68,1.5-2.42,4.38-1.69,6.52c0.72,2.1,2.8,2.66,4.46,1.19C45.48,22.13,45.97,20.5,46.12,18.48z"/>
	<path class="st1" d="M23.97,24.69c0.73-0.64,1.36-1.31,2.1-1.8c2.82-1.85,6.38-1.43,8.75,1.02c2.2,2.27,2.79,5.01,2.18,8.05
		c-0.42,2.1-1.43,3.94-2.73,5.62c-2.25,2.9-5.13,5.05-8.24,6.92c-0.49,0.29-0.99,0.56-1.48,0.85c-0.33,0.2-0.65,0.21-1,0.02
		c-3.19-1.78-6.2-3.81-8.69-6.53c-1.64-1.8-2.92-3.81-3.63-6.17c-1.06-3.52,0.06-7.34,2.79-9.43c3.01-2.3,7.04-1.88,9.53,0.99
		C23.71,24.38,23.86,24.56,23.97,24.69z M35.67,29.74c-0.03-1.92-0.75-3.65-2.26-5.04c-1.67-1.52-4.16-1.82-6.13-0.72
		c-1,0.56-1.76,1.37-2.39,2.32c-0.58,0.88-1.1,0.88-1.68,0.02c-0.23-0.33-0.46-0.65-0.72-0.95c-2.85-3.32-7.2-2.34-9.12,0.96
		c-1.09,1.88-1.16,3.87-0.59,5.92c0.76,2.69,2.4,4.81,4.38,6.7c1.98,1.89,4.24,3.39,6.61,4.73c0.14,0.08,0.42,0.07,0.57-0.02
		c1.23-0.75,2.48-1.48,3.65-2.32c2.32-1.65,4.4-3.54,5.93-5.99C34.97,33.67,35.63,31.86,35.67,29.74z"/>
	<path class="st1" d="M10.79,9.69c0.05-1.82,0.48-3.61,1.66-5.17c1.88-2.49,4.97-2.83,7.36-0.81c1.88,1.59,2.82,3.67,3.14,6.07
		c0.28,2.18-0.03,4.26-1.21,6.15c-1.09,1.73-2.63,2.74-4.75,2.58c-1.61-0.13-2.85-0.99-3.87-2.18
		C11.58,14.54,10.79,12.25,10.79,9.69z M21.48,10.77c-0.06-0.37-0.13-1.1-0.3-1.81C20.82,7.37,20.07,6,18.83,4.93
		c-0.9-0.77-1.94-1.19-3.15-0.88c-1.01,0.26-1.72,0.92-2.26,1.78c-1.91,3.02-1.18,7.84,1.54,10.17c1.76,1.5,3.88,1.26,5.24-0.61
		C21.13,14.13,21.44,12.67,21.48,10.77z"/>
	<path class="st1" d="M25.07,10.78c0.06-2.29,0.82-4.68,2.73-6.61c2.66-2.7,6.31-2.26,8.28,0.97c2.15,3.54,1.39,8.99-1.66,11.8
		c-2.87,2.64-6.63,1.92-8.39-1.61C25.4,14.07,25.06,12.61,25.07,10.78z M26.62,10.96c0.03,1.69,0.34,3.15,1.26,4.41
		c1.42,1.96,3.75,2.12,5.48,0.44c1.3-1.26,1.99-2.82,2.27-4.57c0.33-2,0.07-3.93-1.11-5.63c-1.41-2.03-3.72-2.2-5.49-0.47
		C27.36,6.79,26.71,8.84,26.62,10.96z"/>
	<path class="st1" d="M10.32,20.13c-0.02,1.43-0.25,2.56-0.88,3.59c-1.34,2.21-4.07,2.72-6.09,1.1c-2.23-1.79-3.03-4.19-2.84-6.98
		c0.08-1.17,0.47-2.22,1.21-3.12c1.43-1.73,3.91-1.94,5.7-0.51C9.41,15.78,10.18,17.93,10.32,20.13z M8.86,20.38
		c-0.04-0.01-0.08-0.02-0.12-0.03c-0.04-1.93-0.81-3.7-2.09-4.79c-1.46-1.25-3.3-0.88-4.16,0.82c-0.43,0.85-0.56,1.76-0.47,2.69
		c0.16,1.7,0.72,3.23,2.06,4.38c1.52,1.3,3.4,0.91,4.2-0.91C8.58,21.86,8.68,21.1,8.86,20.38z"/>
</g>
<path d="M43.53,21.88c-2.39-2.24-5.08-3.99-8.03-5.28c-4.66-2.04-9.5-2.76-14.51-2.18c-6.79,0.8-12.64,3.76-17.51,8.83
	c-0.8,0.83-2.05,0.57-2.34-0.47c-0.17-0.6,0-1.09,0.42-1.52c2.03-2.12,4.28-3.94,6.76-5.44c4.08-2.45,8.47-3.88,13.15-4.29
	c3.16-0.28,6.29-0.09,9.39,0.61c6.15,1.38,11.45,4.43,15.94,9.09c0.4,0.42,0.61,0.89,0.48,1.48c-0.24,1.04-1.43,1.42-2.19,0.7
	c-0.34-0.32-0.66-0.67-0.99-1.01c0.42-0.42,0.84-0.83,1.25-1.25c0.09-0.09,0.28-0.18,0.15-0.35c-0.11-0.13-0.24,0-0.34,0.07
	C44.61,21.2,44.07,21.54,43.53,21.88z"/>
<path d="M37.91,25.55c-2.49-2.02-5.26-3.46-8.32-4.18c-8.17-1.91-15.34,0.16-21.44,6.25c-0.41,0.41-0.87,0.61-1.41,0.44
	c-0.5-0.15-0.82-0.52-0.93-1.07c-0.1-0.51,0.04-0.94,0.38-1.3c1.3-1.38,2.73-2.6,4.29-3.65c4.46-3,9.35-4.4,14.63-4.2
	c5.67,0.22,10.71,2.24,15.13,6.01c0.04,0.03,0.06,0.07,0.1,0.11C39.54,24.53,38.73,25.06,37.91,25.55z"/>
<path d="M34.89,27.51c-0.83,0.6-1.67,1.17-2.56,1.67c-2.7-1.53-5.59-2.29-8.65-2.2c-4.57,0.13-8.5,1.89-11.78,5.25
	c-0.4,0.41-0.84,0.61-1.38,0.46c-1.03-0.27-1.35-1.59-0.58-2.4c1.31-1.39,2.77-2.6,4.42-3.51c6.86-3.75,13.63-3.56,20.3,0.56
	C34.74,27.4,34.81,27.46,34.89,27.51z"/>
<path d="M29.01,31.37c-0.58,0.47-1.22,0.83-1.83,1.25c-0.4,0.28-0.82,0.53-1.23,0.79c-3.68-0.58-6.87,0.49-9.57,3.19
	c-0.43,0.43-0.91,0.62-1.48,0.42c-0.96-0.35-1.2-1.59-0.46-2.37c1.5-1.58,3.26-2.74,5.27-3.45c3.02-1.07,6.04-1.04,9.05,0.05
	C28.85,31.28,28.93,31.33,29.01,31.37z"/>
<path d="M30.65,35.43c0.64-0.68,1.32-1.31,2-1.94c0.39,0.36,0.78,0.71,1.16,1.09c0.62,0.61,0.66,1.49,0.12,2.09
	c-0.53,0.58-1.34,0.58-1.94-0.03C31.56,36.21,31.11,35.82,30.65,35.43z"/>
<path d="M35.1,31.15c0.62-0.69,1.3-1.3,1.97-1.94c0.35,0.35,0.71,0.69,1.06,1.04c0.59,0.62,0.61,1.49,0.07,2.06
	c-0.54,0.57-1.34,0.55-1.93-0.04C35.88,31.91,35.49,31.53,35.1,31.15z"/>
<path d="M39.46,26.9c0.66-0.64,1.31-1.27,1.97-1.91c0.25,0.25,0.5,0.48,0.74,0.74c0.52,0.57,0.51,1.43,0,1.98
	c-0.51,0.55-1.33,0.56-1.87,0.04C40.02,27.47,39.74,27.18,39.46,26.9z"/>
<path class="st2" d="M37.91,25.55c0.82-0.49,1.63-1.02,2.42-1.58c1.08-0.67,2.15-1.36,3.2-2.09c0.54-0.34,1.08-0.69,1.63-1.03
	c0.11-0.07,0.24-0.2,0.34-0.07c0.13,0.17-0.06,0.26-0.15,0.35c-0.41,0.42-0.83,0.84-1.25,1.25c-0.91,0.83-1.8,1.71-2.67,2.59
	c-0.66,0.64-1.31,1.27-1.97,1.91c-0.8,0.77-1.59,1.55-2.39,2.32c-0.67,0.63-1.35,1.25-1.97,1.94c-0.85,0.74-1.64,1.55-2.45,2.35
	c-0.68,0.63-1.36,1.26-2,1.94c-0.9,0.85-1.79,1.69-2.69,2.53c-0.41,0.39-0.83,0.78-1.25,1.16c-0.71,0.63-1.51,1.01-2.45,1
	c-1.58,0-2.54-1.35-2.11-2.97c0.25-0.96,0.82-1.67,1.59-2.21c0.73-0.52,1.47-1.03,2.21-1.54c0.41-0.26,0.83-0.51,1.23-0.79
	c0.61-0.42,1.25-0.78,1.83-1.25c1.13-0.69,2.25-1.4,3.31-2.19c0.89-0.49,1.7-1.11,2.56-1.67c0.89-0.57,1.78-1.15,2.67-1.71
	C37.68,25.72,37.79,25.63,37.91,25.55z M25.65,37.83c0-0.77-0.6-1.41-1.32-1.41c-0.71,0-1.3,0.62-1.32,1.38
	c-0.01,0.77,0.57,1.41,1.3,1.43C25.03,39.24,25.65,38.59,25.65,37.83z"/>
<path class="st3" d="M25.65,37.83c0,0.77-0.62,1.41-1.34,1.4c-0.73-0.02-1.32-0.66-1.3-1.43c0.01-0.76,0.61-1.38,1.32-1.38
	C25.05,36.41,25.66,37.06,25.65,37.83z"/>
</svg>
